<?xml version="1.0" encoding="utf-8"?>
<svg id="master-artboard" viewBox="0 0 1400 980" version="1.1" xmlns="http://www.w3.org/2000/svg" x="0px" y="0px" style="enable-background:new 0 0 1400 980;" width="1400px" height="980px"><rect id="ee-background" x="0" y="0" width="1400" height="980" style="fill: rgb(0, 212, 255); fill-opacity: 1; pointer-events: none;"/><defs><style id="ee-google-fonts">@import url(https://fonts.googleapis.com/css?family=Sansita+One:400);</style></defs>























































































































<path d="M 260.79998779296875 86.19999694824219" style="fill: rgb(23, 168, 247); fill-opacity: 1; stroke: rgb(0, 0, 0); stroke-opacity: 1; stroke-width: 0; paint-order: fill;"/><path d="M 380.21368408203125 257 L 383.1436767578125 241.22999572753906 C 384.7303466796875 241.05667114257812 386.677001953125 240.97000122070312 388.9836730957031 240.97000122070312 C 391.2970275878906 240.97000122070312 392.9903564453125 241.30667114257812 394.0636901855469 241.97999572753906 C 395.13702392578125 242.64666748046875 395.6736755371094 243.6566619873047 395.6736755371094 245.00999450683594 C 395.6736755371094 246.3633270263672 395.32366943359375 247.4633331298828 394.6236877441406 248.30999755859375 C 393.93035888671875 249.1566619873047 392.9836730957031 249.71665954589844 391.78369140625 249.99000549316406 C 392.0570068359375 251.31666564941406 392.5036926269531 252.51666259765625 393.1236877441406 253.58999633789062 C 393.70367431640625 254.59666442871094 394.3303527832031 255.25999450683594 395.0036926269531 255.5800018310547 C 394.763671875 256.2533264160156 394.3970031738281 256.739990234375 393.9036865234375 257.0400085449219 C 393.4170227050781 257.3333435058594 392.8270263671875 257.4800109863281 392.1336669921875 257.4800109863281 C 391.4336853027344 257.4800109863281 390.8136901855469 257.27667236328125 390.273681640625 256.8699951171875 C 389.7270202636719 256.4633483886719 389.23699951171875 255.88333129882812 388.8036804199219 255.1300048828125 C 387.8970031738281 253.49667358398438 387.3936767578125 251.39334106445312 387.2936706542969 248.82000732421875 L 387.46368408203125 248.82000732421875 C 388.6503601074219 248.7866668701172 389.5370178222656 248.4600067138672 390.1236877441406 247.83999633789062 C 390.7170104980469 247.22666931152344 391.013671875 246.27333068847656 391.013671875 244.97999572753906 C 391.013671875 243.36000061035156 390.33367919921875 242.52000427246094 388.97369384765625 242.4600067138672 L 388.4436950683594 242.4600067138672 C 388.3036804199219 242.4600067138672 388.1936950683594 242.46665954589844 388.1136779785156 242.47999572753906 L 385.3536682128906 257 L 380.21368408203125 257 ZM 406.13726806640625 245.91000366210938 C 406.3772888183594 245.42999267578125 406.4972839355469 244.96665954589844 406.4972839355469 244.52000427246094 C 406.4972839355469 244.07333374023438 406.47393798828125 243.72666931152344 406.4272766113281 243.47999572753906 C 406.3739318847656 243.22666931152344 406.2939453125 243.0066680908203 406.1872863769531 242.82000732421875 C 405.947265625 242.39999389648438 405.5872802734375 242.19000244140625 405.1072692871094 242.19000244140625 C 404.5139465332031 242.19000244140625 403.9772644042969 242.4066619873047 403.4972839355469 242.83999633789062 C 402.98394775390625 243.2866668701172 402.7272644042969 243.8633270263672 402.7272644042969 244.57000732421875 C 402.7272644042969 245.01666259765625 402.8839416503906 245.413330078125 403.197265625 245.75999450683594 C 403.5106201171875 246.10000610351562 403.90728759765625 246.42999267578125 404.38726806640625 246.75 C 404.8672790527344 247.07000732421875 405.3772888183594 247.38999938964844 405.9172668457031 247.7100067138672 C 406.4639587402344 248.02999877929688 406.9772644042969 248.38333129882812 407.457275390625 248.77000427246094 C 408.5572814941406 249.64999389648438 409.1072692871094 250.67999267578125 409.1072692871094 251.86000061035156 C 409.1072692871094 252.66000366210938 408.89727783203125 253.39999389648438 408.4772644042969 254.0800018310547 C 408.05059814453125 254.75999450683594 407.4872741699219 255.35000610351562 406.78729248046875 255.85000610351562 C 405.2472839355469 256.9366760253906 403.4606018066406 257.4800109863281 401.4272766113281 257.4800109863281 C 399.7806091308594 257.4800109863281 398.533935546875 257.2133483886719 397.6872863769531 256.67999267578125 C 396.8406066894531 256.1400146484375 396.4172668457031 255.4633331298828 396.4172668457031 254.64999389648438 C 396.4172668457031 253.19000244140625 396.98394775390625 252.27667236328125 398.1172790527344 251.91000366210938 C 398.4372863769531 251.79666137695312 398.8406066894531 251.74000549316406 399.3272705078125 251.74000549316406 C 399.82061767578125 251.74000549316406 400.3472900390625 251.84666442871094 400.90728759765625 252.05999755859375 C 400.64727783203125 252.7133331298828 400.51727294921875 253.336669921875 400.51727294921875 253.92999267578125 C 400.51727294921875 255.2100067138672 400.97393798828125 255.85000610351562 401.88726806640625 255.85000610351562 C 402.4806213378906 255.85000610351562 403.0205993652344 255.63333129882812 403.5072937011719 255.1999969482422 C 403.99395751953125 254.76666259765625 404.2372741699219 254.30667114257812 404.2372741699219 253.82000732421875 C 404.2372741699219 253.3333282470703 404.08062744140625 252.913330078125 403.76727294921875 252.55999755859375 C 403.4606018066406 252.2066650390625 403.0739440917969 251.88999938964844 402.6072692871094 251.61000061035156 C 402.140625 251.3300018310547 401.640625 251.05332946777344 401.1072692871094 250.77999877929688 C 400.5739440917969 250.51333618164062 400.0739440917969 250.18666076660156 399.6072692871094 249.8000030517578 C 398.5205993652344 248.9199981689453 397.9772644042969 247.77667236328125 397.9772644042969 246.3699951171875 C 397.9772644042969 245.4566650390625 398.20062255859375 244.64334106445312 398.64727783203125 243.92999267578125 C 399.09393310546875 243.21665954589844 399.6772766113281 242.6199951171875 400.39727783203125 242.13999938964844 C 401.8372802734375 241.1666717529297 403.44061279296875 240.67999267578125 405.207275390625 240.67999267578125 C 406.9806213378906 240.67999267578125 408.2939453125 240.94332885742188 409.14727783203125 241.47000122070312 C 410.0006103515625 241.99667358398438 410.4272766113281 242.7100067138672 410.4272766113281 243.61000061035156 C 410.4272766113281 244.38999938964844 410.1239318847656 245.02999877929688 409.51727294921875 245.52999877929688 C 408.9906005859375 245.94332885742188 408.40728759765625 246.14999389648438 407.76727294921875 246.14999389648438 C 407.1272888183594 246.14999389648438 406.5839538574219 246.07000732421875 406.13726806640625 245.91000366210938 ZM 412.85699462890625 245.30999755859375 C 412.3103332519531 244.89666748046875 412.0370178222656 244.24667358398438 412.0370178222656 243.36000061035156 C 412.0370178222656 242.46665954589844 412.3303527832031 241.7899932861328 412.9170227050781 241.3300018310547 C 413.49700927734375 240.8633270263672 414.2936706542969 240.6300048828125 415.3070068359375 240.6300048828125 C 415.947021484375 240.6300048828125 417.0270080566406 240.7433319091797 418.5469970703125 240.97000122070312 L 420.177001953125 241.2100067138672 C 420.7170104980469 241.27000427246094 421.273681640625 241.3000030517578 421.8470153808594 241.3000030517578 C 422.4136657714844 241.3000030517578 422.8869934082031 241.17999267578125 423.2669982910156 240.94000244140625 C 423.8470153808594 241.45333862304688 424.1369934082031 242.0800018310547 424.1369934082031 242.82000732421875 C 424.1369934082031 243.55332946777344 423.8070068359375 244.18333435058594 423.1470031738281 244.7100067138672 C 422.4803466796875 245.27000427246094 421.71368408203125 245.5500030517578 420.8470153808594 245.5500030517578 C 420.4336853027344 245.5500030517578 419.8903503417969 245.4933319091797 419.2170104980469 245.3800048828125 C 418.4303283691406 247.84666442871094 418.0370178222656 249.93666076660156 418.0370178222656 251.64999389648438 C 418.0370178222656 253.3633270263672 418.4703369140625 254.6666717529297 419.3370056152344 255.55999755859375 C 418.93701171875 256.2799987792969 418.4403381347656 256.7799987792969 417.8470153808594 257.05999755859375 C 417.253662109375 257.3399963378906 416.513671875 257.4800109863281 415.62701416015625 257.4800109863281 C 414.7403564453125 257.4800109863281 414.0203552246094 257.2366638183594 413.4670104980469 256.75 C 412.9136657714844 256.2633361816406 412.6369934082031 255.51333618164062 412.6369934082031 254.5 C 412.6369934082031 253.3333282470703 412.9570007324219 251.7899932861328 413.5970153808594 249.8699951171875 C 414.23699951171875 247.97000122070312 415.0370178222656 246.2899932861328 415.99700927734375 244.8300018310547 C 415.5370178222656 244.78334045410156 415.0670166015625 244.75999450683594 414.5870056152344 244.75999450683594 C 413.59368896484375 244.75999450683594 413.0169982910156 244.94332885742188 412.85699462890625 245.30999755859375 Z" transform="matrix(20.553295135498047, 0, 0, 20.553295135498047, -7578.55029296875, -5099.611328125)" style="fill: rgb(51, 51, 51); white-space: pre; color: rgb(51, 51, 51);"/><path style="fill: rgb(133, 17, 44); fill-opacity: 1; stroke: rgb(255, 0, 43); stroke-opacity: 1; stroke-width: 17; paint-order: stroke;" d="M 191.49282836914062 665.2367553710938 L 1120.852783203125 657.985595703125"/></svg>