<?xml version="1.0" encoding="utf-8"?>
<svg id="master-artboard" viewBox="0 0 1400 980" version="1.1" xmlns="http://www.w3.org/2000/svg" x="0px" y="0px" style="enable-background:new 0 0 1400 980;" width="1400px" height="980px"><rect id="ee-background" x="0" y="0" width="1400" height="980" style="fill: rgb(0, 212, 255); fill-opacity: 1; pointer-events: none;"/><defs><style id="ee-google-fonts">@import url(https://fonts.googleapis.com/css?family=Sansita+One:400);</style></defs>























































































































<path d="M 260.79998779296875 86.19999694824219" style="fill: rgb(23, 168, 247); fill-opacity: 1; stroke: rgb(0, 0, 0); stroke-opacity: 1; stroke-width: 0; paint-order: fill;"/><path style="fill: rgb(133, 17, 44); fill-opacity: 1; stroke: rgb(255, 0, 43); stroke-opacity: 1; stroke-width: 17; paint-order: stroke;" d="M 191.49282836914062 665.2367553710938 L 1120.852783203125 657.985595703125" transform="matrix(1.4382314037215245, 0, 0, 1.4382314037215245, -251.90388228973814, -380.19821570462784)"/><path d="M 197.72549438476562 554 L 200.65548706054688 538.22998046875 C 202.24215698242188 538.056640625 204.18882751464844 537.969970703125 206.49549865722656 537.969970703125 C 208.80882263183594 537.969970703125 210.5021514892578 538.306640625 211.5754852294922 538.97998046875 C 212.64881896972656 539.6466674804688 213.18548583984375 540.6566772460938 213.18548583984375 542.010009765625 C 213.18548583984375 543.3633422851562 212.8354949951172 544.4633178710938 212.135498046875 545.3099975585938 C 211.44215393066406 546.1566772460938 210.49549865722656 546.7166748046875 209.2954864501953 546.989990234375 C 209.56883239746094 548.316650390625 210.01548767089844 549.5166625976562 210.635498046875 550.5900268554688 C 211.21548461914062 551.5966796875 211.8421630859375 552.260009765625 212.51548767089844 552.5800170898438 C 212.27549743652344 553.2533569335938 211.90882873535156 553.739990234375 211.41549682617188 554.0399780273438 C 210.9288330078125 554.3333129882812 210.3388214111328 554.47998046875 209.64549255371094 554.47998046875 C 208.94549560546875 554.47998046875 208.3254852294922 554.2766723632812 207.78549194335938 553.8699951171875 C 207.23883056640625 553.4633178710938 206.7488250732422 552.8833618164062 206.31549072265625 552.1300048828125 C 205.40882873535156 550.4966430664062 204.90548706054688 548.393310546875 204.8054962158203 545.8200073242188 L 204.97549438476562 545.8200073242188 C 206.1621551513672 545.7866821289062 207.048828125 545.4600219726562 207.635498046875 544.8400268554688 C 208.22882080078125 544.2266845703125 208.52549743652344 543.2733154296875 208.52549743652344 541.97998046875 C 208.52549743652344 540.3599853515625 207.84548950195312 539.52001953125 206.48548889160156 539.4600219726562 L 205.9554901123047 539.4600219726562 C 205.81549072265625 539.4600219726562 205.7054901123047 539.4666748046875 205.62548828125 539.47998046875 L 202.86549377441406 554 L 197.72549438476562 554 ZM 219.5142059326172 554.47998046875 C 215.99420166015625 554.47998046875 214.2342071533203 552.8233032226562 214.2342071533203 549.510009765625 C 214.2342071533203 547.1566772460938 214.88087463378906 545.219970703125 216.17420959472656 543.7000122070312 C 217.55419921875 542.086669921875 219.4342041015625 541.280029296875 221.814208984375 541.280029296875 C 223.54754638671875 541.280029296875 224.8542022705078 541.6799926757812 225.7342071533203 542.47998046875 C 226.6142120361328 543.280029296875 227.05419921875 544.52001953125 227.05419921875 546.2000122070312 C 227.05419921875 548.760009765625 226.3642120361328 550.7833251953125 224.9842071533203 552.27001953125 C 223.6442108154297 553.7433471679688 221.8208770751953 554.47998046875 219.5142059326172 554.47998046875 M 220.1342010498047 544.0399780273438 C 220.1342010498047 544.0399780273438 220.08753967285156 544.1466674804688 219.99420166015625 544.3599853515625 C 219.90087890625 544.5800170898438 219.7775421142578 545.0133056640625 219.62420654296875 545.6599731445312 C 219.4708709716797 546.306640625 219.29754638671875 547.143310546875 219.1042022705078 548.1699829101562 C 218.91087341308594 549.1900024414062 218.814208984375 550.3333129882812 218.814208984375 551.5999755859375 C 218.814208984375 552.0133056640625 218.8842010498047 552.356689453125 219.02420043945312 552.6300048828125 C 219.1575469970703 552.9033203125 219.4075469970703 553.0399780273438 219.77420043945312 553.0399780273438 C 220.1475372314453 553.0399780273438 220.44754028320312 552.9533081054688 220.67420959472656 552.780029296875 C 220.9075469970703 552.5999755859375 221.1142120361328 552.3033447265625 221.29420471191406 551.8900146484375 C 221.6142120361328 551.1500244140625 221.90087890625 550.0966796875 222.15420532226562 548.72998046875 C 222.4075469970703 547.3633422851562 222.54754638671875 546.3833618164062 222.57420349121094 545.7899780273438 C 222.6008758544922 545.1966552734375 222.6142120361328 544.6799926757812 222.6142120361328 544.239990234375 C 222.6142120361328 543.7999877929688 222.54754638671875 543.4366455078125 222.41419982910156 543.1500244140625 C 222.28753662109375 542.8633422851562 222.04420471191406 542.719970703125 221.6842041015625 542.719970703125 C 221.32420349121094 542.719970703125 221.02420043945312 542.8333129882812 220.78421020507812 543.0599975585938 C 220.54420471191406 543.280029296875 220.32754516601562 543.606689453125 220.1342010498047 544.0399780273438 ZM 228.15965270996094 552.8499755859375 L 231.12965393066406 537.2000122070312 L 235.99964904785156 536.719970703125 L 235.2596435546875 540.3900146484375 C 235.08631896972656 541.143310546875 234.8863067626953 541.7833251953125 234.65965270996094 542.3099975585938 C 235.0129852294922 541.8633422851562 235.57298278808594 541.5533447265625 236.3396453857422 541.3800048828125 C 236.56631469726562 541.3133544921875 236.81297302246094 541.280029296875 237.07965087890625 541.280029296875 C 238.57298278808594 541.280029296875 239.726318359375 541.7333374023438 240.53964233398438 542.6400146484375 C 241.3529815673828 543.5399780273438 241.7596435546875 544.8633422851562 241.7596435546875 546.6099853515625 C 241.7596435546875 548.8833618164062 241.11297607421875 550.72998046875 239.81964111328125 552.1500244140625 C 238.4263153076172 553.7033081054688 236.46630859375 554.47998046875 233.9396514892578 554.47998046875 C 232.19297790527344 554.47998046875 230.66632080078125 554.193359375 229.35964965820312 553.6199951171875 C 228.89297485351562 553.4066772460938 228.49298095703125 553.1500244140625 228.15965270996094 552.8499755859375 M 232.97964477539062 552.6300048828125 C 233.31297302246094 552.9166870117188 233.6896514892578 553.0599975585938 234.10964965820312 553.0599975585938 C 234.52297973632812 553.0599975585938 234.84963989257812 552.97998046875 235.0896453857422 552.8200073242188 C 235.32965087890625 552.6599731445312 235.53964233398438 552.4199829101562 235.7196502685547 552.0999755859375 C 236.19964599609375 551.239990234375 236.629638671875 549.489990234375 237.0096435546875 546.8499755859375 C 237.12298583984375 546.0966796875 237.1796417236328 545.3433227539062 237.1796417236328 544.5900268554688 C 237.1796417236328 543.836669921875 237.0963134765625 543.3400268554688 236.9296417236328 543.0999755859375 C 236.7629852294922 542.8599853515625 236.5196533203125 542.739990234375 236.19964599609375 542.739990234375 C 235.2196502685547 542.739990234375 234.56964111328125 543.693359375 234.24964904785156 545.5999755859375 L 232.97964477539062 552.6300048828125 ZM 252.92625427246094 549.9400024414062 C 253.3262481689453 550.2133178710938 253.5262451171875 550.6500244140625 253.5262451171875 551.25 C 253.5262451171875 551.8499755859375 253.37290954589844 552.3433227539062 253.06625366210938 552.72998046875 C 252.76625061035156 553.1099853515625 252.36624145507812 553.4299926757812 251.86624145507812 553.6900024414062 C 250.84625244140625 554.2166748046875 249.7829132080078 554.47998046875 248.67625427246094 554.47998046875 C 247.569580078125 554.47998046875 246.6929168701172 554.3599853515625 246.04624938964844 554.1199951171875 C 245.3995819091797 553.8800048828125 244.85958862304688 553.5366821289062 244.42625427246094 553.0900268554688 C 243.57958984375 552.2433471679688 243.15625 551.0433349609375 243.15625 549.489990234375 C 243.15625 547.0700073242188 243.8129119873047 545.1266479492188 245.12625122070312 543.6599731445312 C 246.5329132080078 542.0733642578125 248.45957946777344 541.280029296875 250.90625 541.280029296875 C 252.42625427246094 541.280029296875 253.5629119873047 541.5999755859375 254.31625366210938 542.239990234375 C 254.87625122070312 542.719970703125 255.15625 543.3533325195312 255.15625 544.1400146484375 C 255.15625 546.9533081054688 252.72291564941406 548.3599853515625 247.8562469482422 548.3599853515625 C 247.79624938964844 548.7733154296875 247.76625061035156 549.1566772460938 247.76625061035156 549.510009765625 C 247.76625061035156 550.25 247.92958068847656 550.760009765625 248.25625610351562 551.0399780273438 C 248.58291625976562 551.3200073242188 249.04957580566406 551.4600219726562 249.65625 551.4600219726562 C 250.2695770263672 551.4600219726562 250.8995819091797 551.3200073242188 251.54624938964844 551.0399780273438 C 252.1929168701172 550.760009765625 252.65292358398438 550.393310546875 252.92625427246094 549.9400024414062 M 248.0262451171875 547.3300170898438 C 249.16624450683594 547.3300170898438 250.0629119873047 546.9766845703125 250.71624755859375 546.27001953125 C 251.3695831298828 545.5966796875 251.6962432861328 544.7266845703125 251.6962432861328 543.6599731445312 C 251.6962432861328 543.2866821289062 251.62957763671875 543 251.49624633789062 542.7999877929688 C 251.3629150390625 542.5999755859375 251.15957641601562 542.5 250.88624572753906 542.5 C 250.6129150390625 542.5 250.35958862304688 542.5533447265625 250.12625122070312 542.6599731445312 C 249.89291381835938 542.7666625976562 249.65625 542.9933471679688 249.41624450683594 543.3400268554688 C 248.82958984375 544.1400146484375 248.3662567138672 545.469970703125 248.0262451171875 547.3300170898438 ZM 263.48175048828125 547.260009765625 C 264.0550842285156 546.2333374023438 264.3417663574219 545.2000122070312 264.3417663574219 544.1599731445312 C 264.3417663574219 543.4733276367188 264.0950927734375 543.1300048828125 263.60174560546875 543.1300048828125 C 263.215087890625 543.1300048828125 262.8217468261719 543.4566650390625 262.4217529296875 544.1099853515625 C 262.0084228515625 544.77001953125 261.7384338378906 545.5233154296875 261.61175537109375 546.3699951171875 L 260.36175537109375 554 L 255.39175415039062 554.47998046875 L 257.8417663574219 541.760009765625 L 261.8017578125 541.280029296875 L 261.37176513671875 543.7000122070312 C 262.1517639160156 542.086669921875 263.4217529296875 541.280029296875 265.1817626953125 541.280029296875 C 266.1150817871094 541.280029296875 266.8317565917969 541.52001953125 267.3317565917969 542 C 267.8384094238281 542.47998046875 268.0917663574219 543.2133178710938 268.0917663574219 544.2000122070312 C 268.0917663574219 545.1799926757812 267.7684326171875 545.9833374023438 267.12176513671875 546.6099853515625 C 266.4684143066406 547.22998046875 265.5917663574219 547.5399780273438 264.49176025390625 547.5399780273438 C 264.0117492675781 547.5399780273438 263.6750793457031 547.4466552734375 263.48175048828125 547.260009765625 ZM 268.8556823730469 551.5999755859375 C 268.8556823730469 551.1666870117188 268.968994140625 550.4066772460938 269.1956787109375 549.3200073242188 L 270.4656677246094 542.8400268554688 L 269.0456848144531 542.8400268554688 L 269.1456604003906 542.1199951171875 C 271.065673828125 541.5466918945312 272.95233154296875 540.5533447265625 274.8056640625 539.1400146484375 L 275.9656677246094 539.1400146484375 L 275.38568115234375 541.760009765625 L 277.25567626953125 541.760009765625 L 277.0456848144531 542.8400268554688 L 275.1956787109375 542.8400268554688 L 273.9656677246094 549.3200073242188 C 273.7590026855469 550.3133544921875 273.6556701660156 550.9766845703125 273.6556701660156 551.3099975585938 C 273.6556701660156 552.07666015625 273.9923400878906 552.5399780273438 274.6656799316406 552.7000122070312 C 274.50567626953125 553.2466430664062 274.1390075683594 553.6799926757812 273.565673828125 554 C 272.9856872558594 554.3200073242188 272.28900146484375 554.47998046875 271.4756774902344 554.47998046875 C 270.6556701660156 554.47998046875 270.01568603515625 554.2233276367188 269.5556640625 553.7100219726562 C 269.0890197753906 553.1966552734375 268.8556823730469 552.4933471679688 268.8556823730469 551.5999755859375 ZM 291.4419250488281 542.9099731445312 C 291.68194580078125 542.4299926757812 291.80194091796875 541.9666748046875 291.80194091796875 541.52001953125 C 291.80194091796875 541.0733642578125 291.7785949707031 540.7266845703125 291.73193359375 540.47998046875 C 291.6785888671875 540.2266845703125 291.5986022949219 540.0066528320312 291.491943359375 539.8200073242188 C 291.2519226074219 539.4000244140625 290.8919372558594 539.1900024414062 290.41192626953125 539.1900024414062 C 289.818603515625 539.1900024414062 289.28192138671875 539.4066772460938 288.80194091796875 539.8400268554688 C 288.2886047363281 540.2866821289062 288.03192138671875 540.8633422851562 288.03192138671875 541.5700073242188 C 288.03192138671875 542.0166625976562 288.1885986328125 542.413330078125 288.5019226074219 542.760009765625 C 288.8152770996094 543.0999755859375 289.2119445800781 543.4299926757812 289.6919250488281 543.75 C 290.17193603515625 544.0700073242188 290.68194580078125 544.3900146484375 291.221923828125 544.7100219726562 C 291.76861572265625 545.030029296875 292.28192138671875 545.3833618164062 292.7619323730469 545.77001953125 C 293.8619384765625 546.6500244140625 294.41192626953125 547.6799926757812 294.41192626953125 548.8599853515625 C 294.41192626953125 549.6599731445312 294.2019348144531 550.4000244140625 293.78192138671875 551.0800170898438 C 293.3552551269531 551.760009765625 292.79193115234375 552.3499755859375 292.0919494628906 552.8499755859375 C 290.55194091796875 553.9366455078125 288.7652587890625 554.47998046875 286.73193359375 554.47998046875 C 285.08526611328125 554.47998046875 283.8385925292969 554.2133178710938 282.991943359375 553.6799926757812 C 282.145263671875 553.1400146484375 281.721923828125 552.4633178710938 281.721923828125 551.6500244140625 C 281.721923828125 550.1900024414062 282.2886047363281 549.2766723632812 283.42193603515625 548.9099731445312 C 283.741943359375 548.7966918945312 284.145263671875 548.739990234375 284.6319274902344 548.739990234375 C 285.1252746582031 548.739990234375 285.6519470214844 548.8466796875 286.2119445800781 549.0599975585938 C 285.9519348144531 549.7133178710938 285.8219299316406 550.336669921875 285.8219299316406 550.9299926757812 C 285.8219299316406 552.2100219726562 286.2785949707031 552.8499755859375 287.1919250488281 552.8499755859375 C 287.7852783203125 552.8499755859375 288.32525634765625 552.6333618164062 288.81195068359375 552.2000122070312 C 289.2986145019531 551.7666625976562 289.54193115234375 551.306640625 289.54193115234375 550.8200073242188 C 289.54193115234375 550.3333129882812 289.38525390625 549.913330078125 289.0719299316406 549.5599975585938 C 288.7652587890625 549.2066650390625 288.37860107421875 548.8900146484375 287.91192626953125 548.6099853515625 C 287.4452819824219 548.3300170898438 286.9452819824219 548.0533447265625 286.41192626953125 547.780029296875 C 285.87860107421875 547.5133056640625 285.37860107421875 547.1866455078125 284.91192626953125 546.7999877929688 C 283.82525634765625 545.9199829101562 283.28192138671875 544.7766723632812 283.28192138671875 543.3699951171875 C 283.28192138671875 542.4566650390625 283.5052795410156 541.643310546875 283.9519348144531 540.9299926757812 C 284.3985900878906 540.2166748046875 284.98193359375 539.6199951171875 285.7019348144531 539.1400146484375 C 287.1419372558594 538.1666870117188 288.7452697753906 537.6799926757812 290.5119323730469 537.6799926757812 C 292.2852783203125 537.6799926757812 293.5986022949219 537.943359375 294.4519348144531 538.469970703125 C 295.3052673339844 538.9966430664062 295.73193359375 539.7100219726562 295.73193359375 540.6099853515625 C 295.73193359375 541.3900146484375 295.4285888671875 542.030029296875 294.8219299316406 542.530029296875 C 294.2952575683594 542.943359375 293.7119445800781 543.1500244140625 293.0719299316406 543.1500244140625 C 292.43194580078125 543.1500244140625 291.88861083984375 543.0700073242188 291.4419250488281 542.9099731445312 ZM 303.9393615722656 552.989990234375 C 303.1726989746094 553.9833374023438 301.8360290527344 554.47998046875 299.92938232421875 554.47998046875 C 298.9427185058594 554.47998046875 298.0893859863281 554.1799926757812 297.369384765625 553.5800170898438 C 296.6493835449219 552.97998046875 296.28936767578125 552.2466430664062 296.28936767578125 551.3800048828125 C 296.28936767578125 550.9000244140625 296.3127136230469 550.5399780273438 296.359375 550.2999877929688 L 297.9693908691406 541.760009765625 L 302.8393859863281 541.280029296875 L 301.0893859863281 550.5399780273438 C 301.022705078125 550.893310546875 300.9893798828125 551.17333984375 300.9893798828125 551.3800048828125 C 300.9893798828125 552.3133544921875 301.2693786621094 552.780029296875 301.8293762207031 552.780029296875 C 302.4560546875 552.780029296875 302.9927062988281 552.3533325195312 303.4393615722656 551.5 C 303.5793762207031 551.2333374023438 303.6827087402344 550.92333984375 303.7493896484375 550.5700073242188 L 305.4493713378906 541.760009765625 L 310.17938232421875 541.280029296875 L 308.40936279296875 550.6400146484375 C 308.3560485839844 550.8800048828125 308.3293762207031 551.1266479492188 308.3293762207031 551.3800048828125 C 308.3293762207031 551.6400146484375 308.4027099609375 551.9099731445312 308.54937744140625 552.1900024414062 C 308.696044921875 552.469970703125 308.9993896484375 552.6400146484375 309.4593811035156 552.7000122070312 C 309.36602783203125 553.086669921875 309.1493835449219 553.4066772460938 308.80938720703125 553.6599731445312 C 308.109375 554.2066650390625 307.3793640136719 554.47998046875 306.619384765625 554.47998046875 C 305.859375 554.47998046875 305.25604248046875 554.3433227539062 304.80938720703125 554.0700073242188 C 304.3560485839844 553.7966918945312 304.0660400390625 553.4366455078125 303.9393615722656 552.989990234375 ZM 328.76043701171875 554.47998046875 C 326.8204345703125 554.47998046875 325.8504333496094 553.7266845703125 325.8504333496094 552.219970703125 C 325.8504333496094 551.566650390625 325.9904479980469 550.6033325195312 326.27044677734375 549.3300170898438 C 326.5504455566406 548.056640625 326.7404479980469 547.1666870117188 326.8404235839844 546.6599731445312 C 327.0604248046875 545.4866943359375 327.1704406738281 544.7166748046875 327.1704406738281 544.3499755859375 C 327.1704406738281 543.5366821289062 326.8670959472656 543.1300048828125 326.26043701171875 543.1300048828125 C 325.8604431152344 543.1300048828125 325.4704284667969 543.4066772460938 325.0904235839844 543.9600219726562 C 324.7037658691406 544.5066528320312 324.42376708984375 545.3333129882812 324.25042724609375 546.4400024414062 L 322.76043701171875 554 L 318.0804443359375 554.47998046875 L 319.37042236328125 547.9500122070312 C 319.51708984375 547.22998046875 319.6537780761719 546.4633178710938 319.7804260253906 545.6500244140625 C 319.9071044921875 544.8300170898438 319.9704284667969 544.356689453125 319.9704284667969 544.22998046875 C 319.9704284667969 543.4966430664062 319.700439453125 543.1300048828125 319.1604309082031 543.1300048828125 C 318.79376220703125 543.1300048828125 318.4104309082031 543.4000244140625 318.01043701171875 543.9400024414062 C 317.6104431152344 544.4866943359375 317.2970886230469 545.3200073242188 317.0704345703125 546.4400024414062 L 315.6104431152344 554 L 310.88043212890625 554.47998046875 L 313.4004211425781 541.760009765625 L 317.3104248046875 541.280029296875 L 316.9004211425781 543.7000122070312 C 317.3204345703125 542.8400268554688 317.91375732421875 542.219970703125 318.680419921875 541.8400268554688 C 319.4471130371094 541.4666748046875 320.430419921875 541.280029296875 321.63043212890625 541.280029296875 C 322.3171081542969 541.280029296875 322.8837585449219 541.4466552734375 323.3304443359375 541.780029296875 C 323.78375244140625 542.1199951171875 324.0804443359375 542.5599975585938 324.2204284667969 543.0999755859375 C 324.4937744140625 542.5399780273438 324.97711181640625 542.0966796875 325.6704406738281 541.77001953125 C 326.37042236328125 541.443359375 327.1470947265625 541.280029296875 328.00042724609375 541.280029296875 C 328.8604431152344 541.280029296875 329.50042724609375 541.3733520507812 329.9204406738281 541.5599975585938 C 330.34710693359375 541.739990234375 330.6871032714844 541.9833374023438 330.9404296875 542.2899780273438 C 331.373779296875 542.8499755859375 331.5904235839844 543.6400146484375 331.5904235839844 544.6599731445312 C 331.5904235839844 545.67333984375 331.373779296875 547.2266845703125 330.9404296875 549.3200073242188 C 330.7204284667969 550.3466796875 330.6104431152344 551.0466918945312 330.6104431152344 551.4199829101562 C 330.6104431152344 551.7933349609375 330.71710205078125 552.0933227539062 330.930419921875 552.3200073242188 C 331.1437683105469 552.5466918945312 331.4104309082031 552.67333984375 331.7304382324219 552.7000122070312 C 331.5704345703125 553.2466430664062 331.21710205078125 553.6799926757812 330.6704406738281 554 C 330.1170959472656 554.3200073242188 329.4804382324219 554.47998046875 328.76043701171875 554.47998046875 ZM 350.863037109375 554.47998046875 C 348.92303466796875 554.47998046875 347.9530334472656 553.7266845703125 347.9530334472656 552.219970703125 C 347.9530334472656 551.566650390625 348.0930480957031 550.6033325195312 348.373046875 549.3300170898438 C 348.6530456542969 548.056640625 348.8430480957031 547.1666870117188 348.9430236816406 546.6599731445312 C 349.16302490234375 545.4866943359375 349.2730407714844 544.7166748046875 349.2730407714844 544.3499755859375 C 349.2730407714844 543.5366821289062 348.9696960449219 543.1300048828125 348.363037109375 543.1300048828125 C 347.9630432128906 543.1300048828125 347.5730285644531 543.4066772460938 347.1930236816406 543.9600219726562 C 346.8063659667969 544.5066528320312 346.5263671875 545.3333129882812 346.35302734375 546.4400024414062 L 344.863037109375 554 L 340.18304443359375 554.47998046875 L 341.4730224609375 547.9500122070312 C 341.61968994140625 547.22998046875 341.7563781738281 546.4633178710938 341.8830261230469 545.6500244140625 C 342.00970458984375 544.8300170898438 342.0730285644531 544.356689453125 342.0730285644531 544.22998046875 C 342.0730285644531 543.4966430664062 341.80303955078125 543.1300048828125 341.2630310058594 543.1300048828125 C 340.8963623046875 543.1300048828125 340.5130310058594 543.4000244140625 340.113037109375 543.9400024414062 C 339.7130432128906 544.4866943359375 339.3996887207031 545.3200073242188 339.17303466796875 546.4400024414062 L 337.7130432128906 554 L 332.9830322265625 554.47998046875 L 335.5030212402344 541.760009765625 L 339.41302490234375 541.280029296875 L 339.0030212402344 543.7000122070312 C 339.42303466796875 542.8400268554688 340.016357421875 542.219970703125 340.78302001953125 541.8400268554688 C 341.5497131347656 541.4666748046875 342.53302001953125 541.280029296875 343.7330322265625 541.280029296875 C 344.4197082519531 541.280029296875 344.9863586425781 541.4466552734375 345.43304443359375 541.780029296875 C 345.8863525390625 542.1199951171875 346.18304443359375 542.5599975585938 346.3230285644531 543.0999755859375 C 346.59637451171875 542.5399780273438 347.0797119140625 542.0966796875 347.7730407714844 541.77001953125 C 348.4730224609375 541.443359375 349.24969482421875 541.280029296875 350.10302734375 541.280029296875 C 350.9630432128906 541.280029296875 351.60302734375 541.3733520507812 352.0230407714844 541.5599975585938 C 352.44970703125 541.739990234375 352.7897033691406 541.9833374023438 353.04302978515625 542.2899780273438 C 353.47637939453125 542.8499755859375 353.6930236816406 543.6400146484375 353.6930236816406 544.6599731445312 C 353.6930236816406 545.67333984375 353.47637939453125 547.2266845703125 353.04302978515625 549.3200073242188 C 352.8230285644531 550.3466796875 352.7130432128906 551.0466918945312 352.7130432128906 551.4199829101562 C 352.7130432128906 551.7933349609375 352.8197021484375 552.0933227539062 353.03302001953125 552.3200073242188 C 353.2463684082031 552.5466918945312 353.5130310058594 552.67333984375 353.8330383300781 552.7000122070312 C 353.67303466796875 553.2466430664062 353.3197021484375 553.6799926757812 352.7730407714844 554 C 352.2196960449219 554.3200073242188 351.5830383300781 554.47998046875 350.863037109375 554.47998046875 ZM 365.4056091308594 549.9400024414062 C 365.80560302734375 550.2133178710938 366.005615234375 550.6500244140625 366.005615234375 551.25 C 366.005615234375 551.8499755859375 365.8522644042969 552.3433227539062 365.54559326171875 552.72998046875 C 365.24560546875 553.1099853515625 364.8456115722656 553.4299926757812 364.3456115722656 553.6900024414062 C 363.3255920410156 554.2166748046875 362.26226806640625 554.47998046875 361.1556091308594 554.47998046875 C 360.0489501953125 554.47998046875 359.1722717285156 554.3599853515625 358.5256042480469 554.1199951171875 C 357.8789367675781 553.8800048828125 357.33892822265625 553.5366821289062 356.9056091308594 553.0900268554688 C 356.0589294433594 552.2433471679688 355.6355895996094 551.0433349609375 355.6355895996094 549.489990234375 C 355.6355895996094 547.0700073242188 356.2922668457031 545.1266479492188 357.6055908203125 543.6599731445312 C 359.01226806640625 542.0733642578125 360.9389343261719 541.280029296875 363.3855895996094 541.280029296875 C 364.9056091308594 541.280029296875 366.0422668457031 541.5999755859375 366.79559326171875 542.239990234375 C 367.3555908203125 542.719970703125 367.6355895996094 543.3533325195312 367.6355895996094 544.1400146484375 C 367.6355895996094 546.9533081054688 365.2022705078125 548.3599853515625 360.3356018066406 548.3599853515625 C 360.2756042480469 548.7733154296875 360.24560546875 549.1566772460938 360.24560546875 549.510009765625 C 360.24560546875 550.25 360.408935546875 550.760009765625 360.735595703125 551.0399780273438 C 361.062255859375 551.3200073242188 361.5289306640625 551.4600219726562 362.1355895996094 551.4600219726562 C 362.7489318847656 551.4600219726562 363.3789367675781 551.3200073242188 364.0256042480469 551.0399780273438 C 364.6722717285156 550.760009765625 365.13226318359375 550.393310546875 365.4056091308594 549.9400024414062 M 360.505615234375 547.3300170898438 C 361.6455993652344 547.3300170898438 362.5422668457031 546.9766845703125 363.19561767578125 546.27001953125 C 363.84893798828125 545.5966796875 364.17559814453125 544.7266845703125 364.17559814453125 543.6599731445312 C 364.17559814453125 543.2866821289062 364.10894775390625 543 363.9756164550781 542.7999877929688 C 363.84228515625 542.5999755859375 363.6389465332031 542.5 363.3656005859375 542.5 C 363.09228515625 542.5 362.83892822265625 542.5533447265625 362.6055908203125 542.6599731445312 C 362.3722839355469 542.7666625976562 362.1355895996094 542.9933471679688 361.8955993652344 543.3400268554688 C 361.3089294433594 544.1400146484375 360.8456115722656 545.469970703125 360.505615234375 547.3300170898438 ZM 375.96112060546875 547.260009765625 C 376.5344543457031 546.2333374023438 376.82110595703125 545.2000122070312 376.82110595703125 544.1599731445312 C 376.82110595703125 543.4733276367188 376.5744323730469 543.1300048828125 376.08111572265625 543.1300048828125 C 375.6944274902344 543.1300048828125 375.3011169433594 543.4566650390625 374.9010925292969 544.1099853515625 C 374.4877624511719 544.77001953125 374.2177734375 545.5233154296875 374.0910949707031 546.3699951171875 L 372.8410949707031 554 L 367.87109375 554.47998046875 L 370.32110595703125 541.760009765625 L 374.2810974121094 541.280029296875 L 373.8511047363281 543.7000122070312 C 374.631103515625 542.086669921875 375.9010925292969 541.280029296875 377.6611022949219 541.280029296875 C 378.5944519042969 541.280029296875 379.31109619140625 541.52001953125 379.81109619140625 542 C 380.3177795410156 542.47998046875 380.57110595703125 543.2133178710938 380.57110595703125 544.2000122070312 C 380.57110595703125 545.1799926757812 380.2477722167969 545.9833374023438 379.6011047363281 546.6099853515625 C 378.9477844238281 547.22998046875 378.07110595703125 547.5399780273438 376.9710998535156 547.5399780273438 C 376.4911193847656 547.5399780273438 376.1544494628906 547.4466552734375 375.96112060546875 547.260009765625 ZM 388.125 545.5800170898438 C 388.3516845703125 544.9866943359375 388.46502685546875 544.433349609375 388.46502685546875 543.9199829101562 C 388.46502685546875 542.9733276367188 388.0816650390625 542.5 387.31500244140625 542.5 C 386.9150085449219 542.5 386.5516662597656 542.6799926757812 386.2250061035156 543.0399780273438 C 385.8916931152344 543.4000244140625 385.7250061035156 543.806640625 385.7250061035156 544.260009765625 C 385.7250061035156 544.5800170898438 385.8550109863281 544.8666381835938 386.1150207519531 545.1199951171875 C 386.481689453125 545.4733276367188 387.1383361816406 545.9366455078125 388.08502197265625 546.510009765625 C 389.0250244140625 547.0900268554688 389.6750183105469 547.6133422851562 390.0350036621094 548.0800170898438 C 390.39501953125 548.5533447265625 390.57501220703125 549.1133422851562 390.57501220703125 549.760009765625 C 390.57501220703125 550.413330078125 390.4183349609375 551.0333251953125 390.1050109863281 551.6199951171875 C 389.79833984375 552.2133178710938 389.3650207519531 552.719970703125 388.8050231933594 553.1400146484375 C 387.6050109863281 554.0333251953125 386.0450134277344 554.47998046875 384.125 554.47998046875 C 383.08502197265625 554.47998046875 382.1650085449219 554.2066650390625 381.3650207519531 553.6599731445312 C 380.56500244140625 553.1333618164062 380.1650085449219 552.5599975585938 380.1650085449219 551.9400024414062 C 380.1650085449219 551.3133544921875 380.3916931152344 550.816650390625 380.8450012207031 550.4500122070312 C 381.29833984375 550.0833129882812 381.8616943359375 549.9000244140625 382.5350036621094 549.9000244140625 C 383.2083435058594 549.9000244140625 383.7516784667969 550.0266723632812 384.1650085449219 550.280029296875 C 383.9583435058594 550.806640625 383.8550109863281 551.2466430664062 383.8550109863281 551.5999755859375 C 383.8550109863281 552.6533203125 384.3050231933594 553.1799926757812 385.20501708984375 553.1799926757812 C 385.58502197265625 553.1799926757812 385.9049987792969 553.0599975585938 386.1650085449219 552.8200073242188 C 386.4183349609375 552.5800170898438 386.5450134277344 552.2533569335938 386.5450134277344 551.8400268554688 C 386.5450134277344 551.0266723632812 385.85833740234375 550.1866455078125 384.4850158691406 549.3200073242188 C 383.3650207519531 548.586669921875 382.6750183105469 548.0733032226562 382.4150085449219 547.780029296875 C 381.981689453125 547.2733154296875 381.7650146484375 546.7000122070312 381.7650146484375 546.0599975585938 C 381.7650146484375 545.4199829101562 381.9183349609375 544.7933349609375 382.2250061035156 544.1799926757812 C 382.53167724609375 543.5733642578125 382.96502685546875 543.0533447265625 383.5250244140625 542.6199951171875 C 384.6916809082031 541.7266845703125 386.29168701171875 541.280029296875 388.32501220703125 541.280029296875 C 389.3650207519531 541.280029296875 390.1916809082031 541.4866943359375 390.8050231933594 541.9000244140625 C 391.4183349609375 542.3200073242188 391.7250061035156 542.8800048828125 391.7250061035156 543.5800170898438 C 391.7250061035156 544.2866821289062 391.5150146484375 544.8400268554688 391.0950012207031 545.239990234375 C 390.6683349609375 545.6400146484375 390.0716857910156 545.8400268554688 389.3050231933594 545.8400268554688 C 388.7783508300781 545.8400268554688 388.385009765625 545.7533569335938 388.125 545.5800170898438 ZM 399.4846496582031 542.3099975585938 C 398.93798828125 541.8966674804688 398.6646728515625 541.2466430664062 398.6646728515625 540.3599853515625 C 398.6646728515625 539.4666748046875 398.9580078125 538.7899780273438 399.544677734375 538.3300170898438 C 400.1246643066406 537.8633422851562 400.92132568359375 537.6300048828125 401.9346618652344 537.6300048828125 C 402.5746765136719 537.6300048828125 403.6546630859375 537.7433471679688 405.1746520996094 537.969970703125 L 406.8046569824219 538.2100219726562 C 407.34466552734375 538.27001953125 407.9013366699219 538.2999877929688 408.47467041015625 538.2999877929688 C 409.04132080078125 538.2999877929688 409.5146484375 538.1799926757812 409.8946533203125 537.9400024414062 C 410.47467041015625 538.4533081054688 410.7646484375 539.0800170898438 410.7646484375 539.8200073242188 C 410.7646484375 540.5533447265625 410.4346618652344 541.183349609375 409.774658203125 541.7100219726562 C 409.1080017089844 542.27001953125 408.3413391113281 542.5499877929688 407.47467041015625 542.5499877929688 C 407.06134033203125 542.5499877929688 406.51800537109375 542.4933471679688 405.84466552734375 542.3800048828125 C 405.0579833984375 544.8466796875 404.6646728515625 546.9366455078125 404.6646728515625 548.6500244140625 C 404.6646728515625 550.3633422851562 405.0979919433594 551.6666870117188 405.96466064453125 552.5599975585938 C 405.5646667480469 553.280029296875 405.0679931640625 553.780029296875 404.47467041015625 554.0599975585938 C 403.8813171386719 554.3400268554688 403.1413269042969 554.47998046875 402.2546691894531 554.47998046875 C 401.36798095703125 554.47998046875 400.64801025390625 554.2366943359375 400.09466552734375 553.75 C 399.54132080078125 553.2633056640625 399.2646484375 552.5133056640625 399.2646484375 551.5 C 399.2646484375 550.3333129882812 399.58465576171875 548.7899780273438 400.22467041015625 546.8699951171875 C 400.8646545410156 544.969970703125 401.6646728515625 543.2899780273438 402.6246643066406 541.8300170898438 C 402.1646728515625 541.7833251953125 401.6946716308594 541.760009765625 401.21466064453125 541.760009765625 C 400.2213439941406 541.760009765625 399.6446533203125 541.943359375 399.4846496582031 542.3099975585938 ZM 417.35906982421875 547.260009765625 C 417.9324035644531 546.2333374023438 418.21905517578125 545.2000122070312 418.21905517578125 544.1599731445312 C 418.21905517578125 543.4733276367188 417.9723815917969 543.1300048828125 417.47906494140625 543.1300048828125 C 417.0923767089844 543.1300048828125 416.6990661621094 543.4566650390625 416.2990417480469 544.1099853515625 C 415.8857116699219 544.77001953125 415.61572265625 545.5233154296875 415.4890441894531 546.3699951171875 L 414.2390441894531 554 L 409.26904296875 554.47998046875 L 411.71905517578125 541.760009765625 L 415.6790466308594 541.280029296875 L 415.2490539550781 543.7000122070312 C 416.029052734375 542.086669921875 417.2990417480469 541.280029296875 419.0590515136719 541.280029296875 C 419.9924011230469 541.280029296875 420.70904541015625 541.52001953125 421.20904541015625 542 C 421.7157287597656 542.47998046875 421.96905517578125 543.2133178710938 421.96905517578125 544.2000122070312 C 421.96905517578125 545.1799926757812 421.6457214355469 545.9833374023438 420.9990539550781 546.6099853515625 C 420.3457336425781 547.22998046875 419.46905517578125 547.5399780273438 418.3690490722656 547.5399780273438 C 417.8890686035156 547.5399780273438 417.5523986816406 547.4466552734375 417.35906982421875 547.260009765625 ZM 423.39300537109375 553.280029296875 C 423.39300537109375 553.280029296875 423.2996520996094 553.1766967773438 423.1130065917969 552.969970703125 C 422.92633056640625 552.7633056640625 422.7496643066406 552.3300170898438 422.5830078125 551.6699829101562 C 422.40966796875 551.0166625976562 422.322998046875 550.1533203125 422.322998046875 549.0800170898438 C 422.322998046875 548.0066528320312 422.5096740722656 546.9833374023438 422.88299560546875 546.010009765625 C 423.2496643066406 545.030029296875 423.7696533203125 544.1900024414062 424.4429931640625 543.489990234375 C 425.8163146972656 542.0166625976562 427.6396484375 541.280029296875 429.9129943847656 541.280029296875 C 430.726318359375 541.280029296875 431.4296569824219 541.4166870117188 432.0229797363281 541.6900024414062 L 436.12298583984375 541.280029296875 L 434.3529968261719 550.6400146484375 C 434.30633544921875 550.8333129882812 434.2829895019531 551.106689453125 434.2829895019531 551.4600219726562 C 434.2829895019531 551.806640625 434.3896484375 552.0933227539062 434.6029968261719 552.3200073242188 C 434.8163146972656 552.5466918945312 435.0830078125 552.67333984375 435.4029846191406 552.7000122070312 C 435.24298095703125 553.2466430664062 434.87298583984375 553.6799926757812 434.2929992675781 554 C 433.7063293457031 554.3200073242188 433.0863342285156 554.47998046875 432.4329833984375 554.47998046875 C 431.7729797363281 554.47998046875 431.2229919433594 554.356689453125 430.7829895019531 554.1099853515625 C 430.3429870605469 553.8633422851562 430.0596618652344 553.530029296875 429.9329833984375 553.1099853515625 C 429.6796569824219 553.510009765625 429.2796630859375 553.8400268554688 428.7330017089844 554.0999755859375 C 428.1929931640625 554.3533325195312 427.55633544921875 554.47998046875 426.822998046875 554.47998046875 C 426.0963134765625 554.47998046875 425.43634033203125 554.3833618164062 424.8429870605469 554.1900024414062 C 424.2563171386719 553.9966430664062 423.7729797363281 553.693359375 423.39300537109375 553.280029296875 M 428.4629821777344 543.5399780273438 C 428.4629821777344 543.5399780273438 428.41632080078125 543.6099853515625 428.322998046875 543.75 C 428.22967529296875 543.8966674804688 428.1029968261719 544.2133178710938 427.9429931640625 544.7000122070312 C 427.7829895019531 545.1866455078125 427.5696716308594 546.0833129882812 427.302978515625 547.3900146484375 C 427.0429992675781 548.6900024414062 426.9129943847656 549.806640625 426.9129943847656 550.739990234375 C 426.9129943847656 551.6666870117188 426.9830017089844 552.2666625976562 427.12298583984375 552.5399780273438 C 427.2696533203125 552.806640625 427.46966552734375 552.9400024414062 427.7229919433594 552.9400024414062 C 428.236328125 552.9400024414062 428.6829833984375 552.6966552734375 429.06298828125 552.2100219726562 C 429.43634033203125 551.7233276367188 429.6963195800781 551.0466918945312 429.8429870605469 550.1799926757812 L 431.1130065917969 543.1500244140625 C 430.7729797363281 542.8633422851562 430.40966796875 542.719970703125 430.0229797363281 542.719970703125 C 429.6296691894531 542.719970703125 429.3163146972656 542.7833251953125 429.0830078125 542.9099731445312 C 428.84967041015625 543.0366821289062 428.64300537109375 543.2466430664062 428.4629821777344 543.5399780273438 ZM 447.5758972167969 554.47998046875 C 445.642578125 554.47998046875 444.6759033203125 553.7266845703125 444.6759033203125 552.219970703125 C 444.6892395019531 551.806640625 444.7592468261719 551.2466430664062 444.8858947753906 550.5399780273438 L 445.3158874511719 548.3400268554688 C 445.7492370605469 546.260009765625 445.9659118652344 544.9866943359375 445.9659118652344 544.52001953125 C 445.9659118652344 543.5933227539062 445.6958923339844 543.1300048828125 445.1559143066406 543.1300048828125 C 444.2425537109375 543.1300048828125 443.5458984375 544.3200073242188 443.0658874511719 546.7000122070312 L 441.6459045410156 554 L 436.8258972167969 554.47998046875 L 439.3158874511719 541.739990234375 L 443.2558898925781 541.280029296875 L 442.8758850097656 543.6300048828125 C 443.62255859375 542.0633544921875 445.14923095703125 541.280029296875 447.4559020996094 541.280029296875 C 448.5758972167969 541.280029296875 449.37255859375 541.5166625976562 449.84588623046875 541.989990234375 C 450.3192443847656 542.4633178710938 450.555908203125 543.2266845703125 450.555908203125 544.280029296875 C 450.555908203125 545.2733154296875 450.2992248535156 546.9299926757812 449.785888671875 549.25 C 449.5458984375 550.2899780273438 449.4259033203125 551.0066528320312 449.4259033203125 551.4000244140625 C 449.4259033203125 551.7866821289062 449.5325622558594 552.0933227539062 449.74591064453125 552.3200073242188 C 449.9659118652344 552.5466918945312 450.23590087890625 552.67333984375 450.555908203125 552.7000122070312 C 450.3959045410156 553.2466430664062 450.03924560546875 553.6799926757812 449.48590087890625 554 C 448.93255615234375 554.3200073242188 448.2958984375 554.47998046875 447.5758972167969 554.47998046875 ZM 459.6407775878906 545.5800170898438 C 459.8674621582031 544.9866943359375 459.9808044433594 544.433349609375 459.9808044433594 543.9199829101562 C 459.9808044433594 542.9733276367188 459.59747314453125 542.5 458.8307800292969 542.5 C 458.4307861328125 542.5 458.06744384765625 542.6799926757812 457.74078369140625 543.0399780273438 C 457.407470703125 543.4000244140625 457.24078369140625 543.806640625 457.24078369140625 544.260009765625 C 457.24078369140625 544.5800170898438 457.37078857421875 544.8666381835938 457.63079833984375 545.1199951171875 C 457.9974670410156 545.4733276367188 458.65411376953125 545.9366455078125 459.6007995605469 546.510009765625 C 460.5408020019531 547.0900268554688 461.1907958984375 547.6133422851562 461.55078125 548.0800170898438 C 461.9107971191406 548.5533447265625 462.0907897949219 549.1133422851562 462.0907897949219 549.760009765625 C 462.0907897949219 550.413330078125 461.9341125488281 551.0333251953125 461.62078857421875 551.6199951171875 C 461.3141174316406 552.2133178710938 460.88079833984375 552.719970703125 460.32080078125 553.1400146484375 C 459.12078857421875 554.0333251953125 457.560791015625 554.47998046875 455.6407775878906 554.47998046875 C 454.6007995605469 554.47998046875 453.6807861328125 554.2066650390625 452.88079833984375 553.6599731445312 C 452.0807800292969 553.1333618164062 451.6807861328125 552.5599975585938 451.6807861328125 551.9400024414062 C 451.6807861328125 551.3133544921875 451.907470703125 550.816650390625 452.36077880859375 550.4500122070312 C 452.8141174316406 550.0833129882812 453.3774719238281 549.9000244140625 454.05078125 549.9000244140625 C 454.72412109375 549.9000244140625 455.2674560546875 550.0266723632812 455.6807861328125 550.280029296875 C 455.47412109375 550.806640625 455.37078857421875 551.2466430664062 455.37078857421875 551.5999755859375 C 455.37078857421875 552.6533203125 455.82080078125 553.1799926757812 456.7207946777344 553.1799926757812 C 457.1007995605469 553.1799926757812 457.4207763671875 553.0599975585938 457.6807861328125 552.8200073242188 C 457.9341125488281 552.5800170898438 458.060791015625 552.2533569335938 458.060791015625 551.8400268554688 C 458.060791015625 551.0266723632812 457.3741149902344 550.1866455078125 456.00079345703125 549.3200073242188 C 454.88079833984375 548.586669921875 454.1907958984375 548.0733032226562 453.9307861328125 547.780029296875 C 453.4974670410156 547.2733154296875 453.2807922363281 546.7000122070312 453.2807922363281 546.0599975585938 C 453.2807922363281 545.4199829101562 453.4341125488281 544.7933349609375 453.74078369140625 544.1799926757812 C 454.0474548339844 543.5733642578125 454.4808044433594 543.0533447265625 455.0408020019531 542.6199951171875 C 456.20745849609375 541.7266845703125 457.8074645996094 541.280029296875 459.8407897949219 541.280029296875 C 460.88079833984375 541.280029296875 461.70745849609375 541.4866943359375 462.32080078125 541.9000244140625 C 462.9341125488281 542.3200073242188 463.24078369140625 542.8800048828125 463.24078369140625 543.5800170898438 C 463.24078369140625 544.2866821289062 463.0307922363281 544.8400268554688 462.61077880859375 545.239990234375 C 462.1841125488281 545.6400146484375 461.58746337890625 545.8400268554688 460.82080078125 545.8400268554688 C 460.29412841796875 545.8400268554688 459.9007873535156 545.7533569335938 459.6407775878906 545.5800170898438 ZM 475.31396484375 552.3599853515625 C 475.31396484375 552.3599853515625 475.1473083496094 552.530029296875 474.81396484375 552.8699951171875 C 474.4739685058594 553.2100219726562 473.8439636230469 553.5633544921875 472.9239807128906 553.9299926757812 C 472.00396728515625 554.2966918945312 471.09063720703125 554.47998046875 470.1839599609375 554.47998046875 C 469.2706298828125 554.47998046875 468.6539611816406 554.4000244140625 468.3339538574219 554.239990234375 L 467.5839538574219 558.3200073242188 L 462.7139587402344 558.7999877929688 L 466.0239562988281 541.760009765625 L 469.9439697265625 541.3499755859375 L 469.62396240234375 543.010009765625 C 470.29730224609375 541.8699951171875 471.33062744140625 541.2999877929688 472.7239685058594 541.2999877929688 C 474.2906494140625 541.2999877929688 475.4906311035156 541.806640625 476.323974609375 542.8200073242188 C 477.05731201171875 543.7266845703125 477.4239807128906 544.8766479492188 477.4239807128906 546.27001953125 C 477.4239807128906 547.663330078125 477.2406311035156 548.856689453125 476.87396240234375 549.8499755859375 C 476.5072937011719 550.8433227539062 475.9873046875 551.6799926757812 475.31396484375 552.3599853515625 M 468.62396240234375 552.6599731445312 C 468.9573059082031 552.9466552734375 469.33062744140625 553.0900268554688 469.74395751953125 553.0900268554688 C 470.1639709472656 553.0900268554688 470.49395751953125 553.010009765625 470.7339782714844 552.8499755859375 C 470.9739685058594 552.6900024414062 471.1806335449219 552.4500122070312 471.3539733886719 552.1300048828125 C 471.8339538574219 551.2633056640625 472.2673034667969 549.52001953125 472.6539611816406 546.9000244140625 C 472.7673034667969 546.1266479492188 472.823974609375 545.3666381835938 472.823974609375 544.6199951171875 C 472.823974609375 543.8666381835938 472.7373046875 543.3699951171875 472.56396484375 543.1300048828125 C 472.3973083496094 542.8900146484375 472.1539611816406 542.77001953125 471.8339538574219 542.77001953125 C 470.8606262207031 542.77001953125 470.2139587402344 543.719970703125 469.89398193359375 545.6199951171875 L 468.62396240234375 552.6599731445312 ZM 484.1005859375 554.47998046875 C 480.58056640625 554.47998046875 478.820556640625 552.8233032226562 478.820556640625 549.510009765625 C 478.820556640625 547.1566772460938 479.46722412109375 545.219970703125 480.76055908203125 543.7000122070312 C 482.14056396484375 542.086669921875 484.02056884765625 541.280029296875 486.40057373046875 541.280029296875 C 488.1339111328125 541.280029296875 489.4405822753906 541.6799926757812 490.320556640625 542.47998046875 C 491.2005615234375 543.280029296875 491.64056396484375 544.52001953125 491.64056396484375 546.2000122070312 C 491.64056396484375 548.760009765625 490.9505615234375 550.7833251953125 489.570556640625 552.27001953125 C 488.2305603027344 553.7433471679688 486.4072265625 554.47998046875 484.1005859375 554.47998046875 M 484.7205810546875 544.0399780273438 C 484.7205810546875 544.0399780273438 484.67388916015625 544.1466674804688 484.58056640625 544.3599853515625 C 484.48724365234375 544.5800170898438 484.3638916015625 545.0133056640625 484.2105712890625 545.6599731445312 C 484.0572509765625 546.306640625 483.8839111328125 547.143310546875 483.6905822753906 548.1699829101562 C 483.49725341796875 549.1900024414062 483.40057373046875 550.3333129882812 483.40057373046875 551.5999755859375 C 483.40057373046875 552.0133056640625 483.4705810546875 552.356689453125 483.6105651855469 552.6300048828125 C 483.743896484375 552.9033203125 483.993896484375 553.0399780273438 484.3605651855469 553.0399780273438 C 484.7339172363281 553.0399780273438 485.0339050292969 552.9533081054688 485.26055908203125 552.780029296875 C 485.493896484375 552.5999755859375 485.7005615234375 552.3033447265625 485.8805847167969 551.8900146484375 C 486.2005615234375 551.1500244140625 486.48724365234375 550.0966796875 486.7405700683594 548.72998046875 C 486.993896484375 547.3633422851562 487.1339111328125 546.3833618164062 487.16058349609375 545.7899780273438 C 487.1872253417969 545.1966552734375 487.2005615234375 544.6799926757812 487.2005615234375 544.239990234375 C 487.2005615234375 543.7999877929688 487.1339111328125 543.4366455078125 487.0005798339844 543.1500244140625 C 486.8739013671875 542.8633422851562 486.6305847167969 542.719970703125 486.27056884765625 542.719970703125 C 485.91058349609375 542.719970703125 485.6105651855469 542.8333129882812 485.3705749511719 543.0599975585938 C 485.1305847167969 543.280029296875 484.9139099121094 543.606689453125 484.7205810546875 544.0399780273438 ZM 500.56134033203125 547.260009765625 C 501.1346740722656 546.2333374023438 501.42132568359375 545.2000122070312 501.42132568359375 544.1599731445312 C 501.42132568359375 543.4733276367188 501.1746520996094 543.1300048828125 500.68133544921875 543.1300048828125 C 500.2946472167969 543.1300048828125 499.9013366699219 543.4566650390625 499.5013122558594 544.1099853515625 C 499.0879821777344 544.77001953125 498.8179931640625 545.5233154296875 498.6913146972656 546.3699951171875 L 497.4413146972656 554 L 492.4713134765625 554.47998046875 L 494.92132568359375 541.760009765625 L 498.8813171386719 541.280029296875 L 498.4513244628906 543.7000122070312 C 499.2313232421875 542.086669921875 500.5013122558594 541.280029296875 502.2613220214844 541.280029296875 C 503.1946716308594 541.280029296875 503.91131591796875 541.52001953125 504.41131591796875 542 C 504.9179992675781 542.47998046875 505.17132568359375 543.2133178710938 505.17132568359375 544.2000122070312 C 505.17132568359375 545.1799926757812 504.8479919433594 545.9833374023438 504.2013244628906 546.6099853515625 C 503.5480041503906 547.22998046875 502.67132568359375 547.5399780273438 501.5713195800781 547.5399780273438 C 501.0913391113281 547.5399780273438 500.7546691894531 547.4466552734375 500.56134033203125 547.260009765625 ZM 505.9352722167969 551.5999755859375 C 505.9352722167969 551.1666870117188 506.048583984375 550.4066772460938 506.2752685546875 549.3200073242188 L 507.5452575683594 542.8400268554688 L 506.1252746582031 542.8400268554688 L 506.2252502441406 542.1199951171875 C 508.145263671875 541.5466918945312 510.03192138671875 540.5533447265625 511.88525390625 539.1400146484375 L 513.0452880859375 539.1400146484375 L 512.4652709960938 541.760009765625 L 514.3352661132812 541.760009765625 L 514.125244140625 542.8400268554688 L 512.2752685546875 542.8400268554688 L 511.0452575683594 549.3200073242188 C 510.8385925292969 550.3133544921875 510.7352600097656 550.9766845703125 510.7352600097656 551.3099975585938 C 510.7352600097656 552.07666015625 511.0719299316406 552.5399780273438 511.7452697753906 552.7000122070312 C 511.58526611328125 553.2466430664062 511.2185974121094 553.6799926757812 510.645263671875 554 C 510.0652770996094 554.3200073242188 509.36859130859375 554.47998046875 508.5552673339844 554.47998046875 C 507.7352600097656 554.47998046875 507.09527587890625 554.2233276367188 506.63525390625 553.7100219726562 C 506.1686096191406 553.1966552734375 505.9352722167969 552.4933471679688 505.9352722167969 551.5999755859375 Z" transform="matrix(4.042773723602295, 0, 0, 4.042773723602295, -763.9335327148438, -1824.837646484375)" style="fill: rgb(51, 51, 51); white-space: pre; color: rgb(51, 51, 51);"/></svg>