<?xml version="1.0" encoding="utf-8"?>
<svg id="master-artboard" viewBox="0 0 1400 980" version="1.1" xmlns="http://www.w3.org/2000/svg" x="0px" y="0px" style="enable-background:new 0 0 336 235.2;" width="1400px" height="980px"><rect id="ee-background" x="0" y="0" width="1400" height="980" style="fill: white; fill-opacity: 0; pointer-events: none;"/>














<g transform="matrix(14.010100364685057, 0, 0, 14.010100364685057, -814.867919921875, -895.2230323348223)"><g id="g-1" transform="matrix(1, 0, 0, 1, 0, 0)">
	<g id="g-2">
		<path class="st0" d="M58,49h100v100H58V49z" style="fill: rgb(0, 229, 255); stroke: rgb(254, 255, 252); stroke-width: 0; fill-opacity: 1;"/>
	</g>
</g></g><path style="fill: rgb(0, 229, 255); fill-opacity: 1; stroke: rgb(254, 255, 252); stroke-opacity: 1; stroke-width: 0; paint-order: stroke;" d="M 302.2298889160156 423.06610107421875 L 318.8152770996094 209.82574462890625 C 318.8152770996094 209.82574462890625 413.5887756347656 365.0173645019531 410.0347595214844 366.2020263671875 C 406.4807434082031 367.3866882324219 261.951171875 366.2020263671875 261.951171875 366.2020263671875 L 417.14276123046875 256.02783203125 L 394.6340637207031 372.1253662109375 L 310.5225830078125 431.3587951660156"/><path d="M 308.1868896484375 407.6074523925781 C 308.1868896484375 408.52081298828125 307.5735778808594 408.97747802734375 306.3468933105469 408.97747802734375 L 290.9669189453125 409.5174560546875 C 290.2802429199219 409.47747802734375 289.77691650390625 409.04412841796875 289.4569091796875 408.21746826171875 L 272.2969055175781 364.7474670410156 L 267.51690673828125 407.33746337890625 C 267.37689208984375 408.4307861328125 266.8069152832031 408.9974670410156 265.8069152832031 409.0374755859375 L 251.51690673828125 409.5174560546875 C 250.51690673828125 409.4307861328125 250.01690673828125 408.9974670410156 250.01690673828125 408.21746826171875 L 261.8468933105469 305.33746337890625 C 261.9335632324219 304.5174560546875 262.13690185546875 303.9608154296875 262.4569091796875 303.66748046875 C 262.77691650390625 303.3674621582031 265.1935729980469 303.0241394042969 269.7069091796875 302.637451171875 C 274.21356201171875 302.25079345703125 280.2268981933594 302.0574645996094 287.74688720703125 302.0574645996094 C 295.26690673828125 302.0574645996094 301.06689453125 304.0508117675781 305.14691162109375 308.0374755859375 C 309.2268981933594 312.0307922363281 311.26690673828125 317.1708068847656 311.26690673828125 323.45745849609375 C 311.26690673828125 329.744140625 310.5135803222656 335.2908020019531 309.00689697265625 340.09747314453125 C 307.50689697265625 344.9107971191406 305.0235595703125 349.2308044433594 301.5569152832031 353.0574645996094 C 298.0968933105469 356.8841247558594 293.76690673828125 359.7308044433594 288.56689453125 361.59747314453125 L 307.9869079589844 406.7874755859375 C 308.1202392578125 407.060791015625 308.1868896484375 407.3341369628906 308.1868896484375 407.6074523925781 M 277.56689453125 317.9874572753906 L 273.7369079589844 351.95745849609375 C 282.17022705078125 351.45745849609375 287.980224609375 347.63079833984375 291.1669006347656 340.47747802734375 C 292.9002380371094 336.5574645996094 293.76690673828125 332.580810546875 293.76690673828125 328.5474853515625 C 293.76690673828125 324.5141296386719 292.9335632324219 321.6907958984375 291.26690673828125 320.07745361328125 C 289.6069030761719 318.45745849609375 287.20355224609375 317.6474609375 284.0569152832031 317.6474609375 C 280.9169006347656 317.6474609375 278.7535705566406 317.76080322265625 277.56689453125 317.9874572753906 ZM 345.6878662109375 409.9974670410156 C 345.6878662109375 409.9974670410156 343.66455078125 409.9974670410156 339.61785888671875 409.9974670410156 C 335.5711975097656 409.9974670410156 331.6678771972656 407.57080078125 327.9078674316406 402.71746826171875 C 324.154541015625 397.8641357421875 322.2778625488281 390.7908020019531 322.2778625488281 381.4974670410156 C 322.2778625488281 377.16412353515625 322.7545471191406 371.51080322265625 323.7078857421875 364.5374755859375 C 324.6678771972656 357.56414794921875 325.557861328125 352.494140625 326.37786865234375 349.32745361328125 C 327.1978759765625 346.1607971191406 328.3578796386719 343.06414794921875 329.8578796386719 340.0374755859375 C 331.3645324707031 337.004150390625 333.14453125 334.5074768066406 335.1978759765625 332.5474853515625 C 339.70452880859375 328.17413330078125 345.81121826171875 325.9874572753906 353.51788330078125 325.9874572753906 C 364.4512023925781 325.9874572753906 371.5378723144531 329.9974670410156 374.7778625488281 338.0174560546875 C 376.5045471191406 342.30413818359375 377.36785888671875 347.4874572753906 377.36785888671875 353.5674743652344 C 377.36785888671875 359.6541442871094 376.9012145996094 365.9541320800781 375.9678649902344 372.46746826171875 C 375.0345458984375 378.9874572753906 374.1578674316406 383.8074645996094 373.3378601074219 386.9274597167969 C 372.51788330078125 390.0474548339844 371.36785888671875 393.1007995605469 369.88787841796875 396.08746337890625 C 368.4078674316406 399.0741271972656 366.6412048339844 401.5474548339844 364.5878601074219 403.5074768066406 C 360.07452392578125 407.8341369628906 353.7745361328125 409.9974670410156 345.6878662109375 409.9974670410156 M 357.74786376953125 380.0574645996094 C 358.2545471191406 377.6441345214844 358.904541015625 373.12078857421875 359.6978759765625 366.4874572753906 C 360.49786376953125 359.8541259765625 360.89788818359375 354.9441223144531 360.89788818359375 351.7574768066406 C 360.89788818359375 344.01080322265625 358.09454345703125 340.137451171875 352.48785400390625 340.137451171875 C 349.8478698730469 340.137451171875 347.67120361328125 341.39080810546875 345.9578857421875 343.8974609375 C 344.2511901855469 346.4041442871094 342.8745422363281 350.5741271972656 341.827880859375 356.407470703125 C 339.7278747558594 368.254150390625 338.6778564453125 377.87078857421875 338.6778564453125 385.2574768066406 C 338.6778564453125 392.637451171875 341.4578857421875 396.32745361328125 347.01788330078125 396.32745361328125 C 349.66455078125 396.32745361328125 351.8645324707031 395.06414794921875 353.61785888671875 392.5374755859375 C 355.3712158203125 390.0041198730469 356.74786376953125 385.8441467285156 357.74786376953125 380.0574645996094 ZM 420.39654541015625 295.4274597167969 L 414.64654541015625 339.10748291015625 C 416.9265441894531 334.8741455078125 419.37652587890625 331.6274719238281 421.9965515136719 329.3674621582031 C 424.6165466308594 327.1141357421875 427.5565490722656 325.9874572753906 430.8165283203125 325.9874572753906 C 434.0765380859375 325.9874572753906 436.79986572265625 326.52081298828125 438.9865417480469 327.58746337890625 C 441.1732177734375 328.6607971191406 442.96319580078125 330.0741271972656 444.3565368652344 331.82745361328125 C 445.7431945800781 333.580810546875 446.8932189941406 335.6907958984375 447.8065490722656 338.157470703125 C 449.35321044921875 342.5307922363281 450.12652587890625 348.51080322265625 450.12652587890625 356.09747314453125 C 450.12652587890625 363.68414306640625 449.61322021484375 370.12078857421875 448.5865478515625 375.407470703125 C 447.5665283203125 380.6941223144531 446.6665344238281 384.71746826171875 445.88653564453125 387.47747802734375 C 445.11322021484375 390.2308044433594 444.0765380859375 393.0674743652344 442.77655029296875 395.9874572753906 C 441.48321533203125 398.9007873535156 440.0132141113281 401.33746337890625 438.3665466308594 403.2974548339844 C 434.6332092285156 407.7641296386719 430.2498779296875 409.9974670410156 425.216552734375 409.9974670410156 C 420.1765441894531 409.9974670410156 416.53985595703125 408.9374694824219 414.3065490722656 406.8174743652344 C 412.0732116699219 404.6974792480469 410.1598815917969 401.4974670410156 408.5665283203125 397.21746826171875 L 407.8165283203125 407.1974792480469 C 407.72320556640625 408.3841247558594 407.1531982421875 408.9974670410156 406.1065368652344 409.0374755859375 L 392.2965393066406 409.5174560546875 C 391.2965393066406 409.4307861328125 390.7965393066406 408.9974670410156 390.7965393066406 408.21746826171875 L 403.50653076171875 295.907470703125 C 403.5998840332031 295.2674560546875 403.7498779296875 294.810791015625 403.95654296875 294.5374755859375 C 404.15655517578125 294.2641296386719 404.5765380859375 294.1041259765625 405.216552734375 294.0574645996094 L 418.6165466308594 293.58746337890625 C 419.80322265625 293.7207946777344 420.39654541015625 294.3341369628906 420.39654541015625 295.4274597167969 M 432.90655517578125 358.0474548339844 C 432.90655517578125 347.1541442871094 429.9898681640625 341.70745849609375 424.15655517578125 341.70745849609375 C 421.60321044921875 341.70745849609375 419.52655029296875 342.88079833984375 417.9265441894531 345.22747802734375 C 416.33319091796875 347.5741271972656 414.95654296875 352.2807922363281 413.7965393066406 359.34747314453125 C 412.63653564453125 366.407470703125 412.0565490722656 371.5574645996094 412.0565490722656 374.7974548339844 C 412.0565490722656 378.0307922363281 412.0765380859375 380.080810546875 412.1165466308594 380.9474792480469 C 412.1632080078125 381.81414794921875 412.25653076171875 382.9641418457031 412.39654541015625 384.3974609375 C 412.5298767089844 385.830810546875 412.7798767089844 387.0374755859375 413.14654541015625 388.0174560546875 C 413.5132141113281 388.9974670410156 413.9931945800781 389.96746826171875 414.5865478515625 390.9274597167969 C 415.76654052734375 392.93414306640625 417.67987060546875 393.9374694824219 420.3265380859375 393.9374694824219 C 422.966552734375 393.9374694824219 425.0632019042969 392.7641296386719 426.6165466308594 390.41748046875 C 428.1632080078125 388.07080078125 429.3465270996094 384.9374694824219 430.1665344238281 381.0174560546875 C 431.9931945800781 372.63079833984375 432.90655517578125 364.97412109375 432.90655517578125 358.0474548339844 ZM 468.0126037597656 396.4274597167969 C 468.0126037597656 396.4274597167969 467.7459411621094 395.75079345703125 467.2126159667969 394.3974609375 C 466.67926025390625 393.04412841796875 466.2192687988281 391.03411865234375 465.8326110839844 388.3674621582031 C 465.4459228515625 385.7008056640625 465.2525939941406 382.0408020019531 465.2525939941406 377.387451171875 C 465.2525939941406 372.74078369140625 465.7525939941406 367.00079345703125 466.7525939941406 360.16748046875 C 470.07928466796875 337.38079833984375 480.422607421875 325.9874572753906 497.7825927734375 325.9874572753906 C 504.48260498046875 325.9874572753906 509.61260986328125 328.2874755859375 513.172607421875 332.887451171875 C 516.7259521484375 337.494140625 518.5026245117188 343.4641418457031 518.5026245117188 350.7974548339844 C 518.5026245117188 358.137451171875 518.0459594726562 365.27081298828125 517.1326293945312 372.1974792480469 C 516.9926147460938 373.42413330078125 516.2859497070312 374.060791015625 515.0125732421875 374.10748291015625 L 481.24261474609375 375.2774658203125 C 481.1959228515625 375.95745849609375 481.172607421875 376.8674621582031 481.172607421875 378.0074768066406 C 481.172607421875 383.1541442871094 482.0726013183594 387.234130859375 483.8725891113281 390.2474670410156 C 485.672607421875 393.2541198730469 488.39593505859375 394.7574768066406 492.0426025390625 394.7574768066406 C 495.68927001953125 394.7574768066406 499.0726013183594 394.2207946777344 502.1925964355469 393.1474609375 C 505.31927490234375 392.0741271972656 507.15594482421875 391.5374755859375 507.7026062011719 391.5374755859375 C 508.249267578125 391.5374755859375 508.7259521484375 391.7207946777344 509.1325988769531 392.08746337890625 C 509.5459289550781 392.4541320800781 509.7525939941406 392.95745849609375 509.7525939941406 393.59747314453125 L 508.3825988769531 405.6274719238281 C 508.3359375 406.3074645996094 508.2092590332031 406.75079345703125 508.0025939941406 406.95745849609375 C 507.8026123046875 407.16412353515625 507.40594482421875 407.38079833984375 506.8125915527344 407.6074523925781 C 501.29925537109375 409.2008056640625 495.9892578125 409.9974670410156 490.8825988769531 409.9974670410156 C 485.77593994140625 409.9974670410156 481.8125915527344 409.3841247558594 478.99261474609375 408.157470703125 C 476.1659240722656 406.92413330078125 473.89593505859375 405.3407897949219 472.1826171875 403.407470703125 C 470.4759216308594 401.46746826171875 469.0859375 399.14080810546875 468.0126037597656 396.4274597167969 M 482.8825988769531 358.1174621582031 L 482.2726135253906 362.4874572753906 L 500.11260986328125 361.59747314453125 C 500.88592529296875 361.5574645996094 501.38592529296875 361.4208068847656 501.61260986328125 361.1874694824219 C 502.29925537109375 360.5074768066406 502.6426086425781 358.6274719238281 502.6426086425781 355.5474548339844 C 502.6426086425781 352.47412109375 502.5392761230469 350.310791015625 502.3326110839844 349.0574645996094 C 502.1259460449219 347.80413818359375 501.7726135253906 346.5174560546875 501.2726135253906 345.19744873046875 C 500.2259521484375 342.2774658203125 498.4359436035156 340.8174743652344 495.902587890625 340.8174743652344 C 493.3759460449219 340.8174743652344 491.3825988769531 341.25079345703125 489.922607421875 342.1174621582031 C 486.68927001953125 344.1241455078125 484.34259033203125 349.45745849609375 482.8825988769531 358.1174621582031 ZM 577.9202270507812 344.0374755859375 L 570.6102294921875 343.2774658203125 C 564.6835327148438 343.2774658203125 559.7169189453125 344.4641418457031 555.710205078125 346.83746337890625 L 548.9402465820312 407.1274719238281 C 548.7535400390625 408.2674560546875 548.1835327148438 408.8841247558594 547.230224609375 408.97747802734375 L 533.4202270507812 409.5174560546875 C 532.4202270507812 409.4307861328125 531.9202270507812 408.9974670410156 531.9202270507812 408.21746826171875 L 540.9402465820312 328.71746826171875 C 541.1202392578125 327.71746826171875 541.6902465820312 327.1708068847656 542.6502075195312 327.07745361328125 L 555.980224609375 326.59747314453125 C 557.2069091796875 326.6441345214844 557.8202514648438 327.2374572753906 557.8202514648438 328.3774719238281 L 557.000244140625 335.41748046875 C 559.9202270507812 332.45745849609375 562.7468872070312 330.1441345214844 565.480224609375 328.47747802734375 C 568.2135620117188 326.8174743652344 570.960205078125 325.9874572753906 573.72021484375 325.9874572753906 C 576.4735717773438 325.9874572753906 578.5802001953125 326.1007995605469 580.0402221679688 326.32745361328125 C 581.000244140625 326.5074768066406 581.480224609375 327.1441345214844 581.480224609375 328.2374572753906 C 581.480224609375 331.3841247558594 580.9535522460938 336.0574645996094 579.9002075195312 342.2574768066406 C 579.673583984375 343.4441223144531 579.0135498046875 344.0374755859375 577.9202270507812 344.0374755859375 ZM 597.2890014648438 326.8774719238281 C 598.335693359375 316.8507995605469 599.01904296875 311.66748046875 599.3389892578125 311.32745361328125 C 599.6589965820312 310.9808044433594 600.1356811523438 310.78411865234375 600.76904296875 310.7374572753906 L 613.8290405273438 310.2674560546875 C 615.0623779296875 310.3541259765625 615.6790161132812 310.9208068847656 615.6790161132812 311.96746826171875 C 614.8123779296875 317.0274658203125 614.0823364257812 321.8841247558594 613.489013671875 326.5374755859375 L 629.4190063476562 325.9874572753906 C 630.5123291015625 326.03411865234375 631.0590209960938 326.6274719238281 631.0590209960938 327.7674560546875 L 629.1390380859375 338.6274719238281 C 628.958984375 339.72747802734375 628.3890380859375 340.2974853515625 627.4290161132812 340.33746337890625 L 611.7789916992188 340.95745849609375 C 608.6790161132812 368.8441467285156 607.1290283203125 384.22412109375 607.1290283203125 387.09747314453125 C 607.1290283203125 392.4307861328125 609.4089965820312 395.09747314453125 613.968994140625 395.09747314453125 C 616.2890014648438 395.09747314453125 618.5423583984375 394.734130859375 620.72900390625 394.0074768066406 C 622.92236328125 393.2741394042969 624.2923583984375 392.907470703125 624.8389892578125 392.907470703125 C 625.7923583984375 392.907470703125 626.26904296875 393.50079345703125 626.26904296875 394.6874694824219 L 624.8389892578125 406.6474609375 C 624.7456665039062 407.3341369628906 624.5723266601562 407.83746337890625 624.3190307617188 408.157470703125 C 624.0723266601562 408.4707946777344 622.9556884765625 408.8574523925781 620.968994140625 409.3174743652344 C 618.989013671875 409.77081298828125 615.6056518554688 409.9974670410156 610.8190307617188 409.9974670410156 C 603.7990112304688 409.9974670410156 598.6056518554688 408.3674621582031 595.239013671875 405.1074523925781 C 591.8656616210938 401.8541259765625 590.1790161132812 396.9908142089844 590.1790161132812 390.5174560546875 C 590.1790161132812 384.04412841796875 591.97900390625 367.5907897949219 595.5790405273438 341.157470703125 L 588.8790283203125 341.4374694824219 C 587.739013671875 341.39080810546875 587.1690063476562 340.82080078125 587.1690063476562 339.72747802734375 L 589.01904296875 328.71746826171875 C 589.15234375 327.6708068847656 589.7423706054688 327.1241455078125 590.7890014648438 327.07745361328125 L 597.2890014648438 326.8774719238281 ZM 665.4832763671875 410.2774658203125 C 664.34326171875 410.2774658203125 663.7732543945312 409.72747802734375 663.7732543945312 408.6274719238281 L 665.4832763671875 394.34747314453125 C 665.6632690429688 393.3407897949219 666.2532348632812 392.79412841796875 667.2532348632812 392.70745849609375 C 674.3665771484375 391.97412109375 679.063232421875 390.8441467285156 681.34326171875 389.3174743652344 C 683.6165771484375 387.7908020019531 684.7532348632812 384.75079345703125 684.7532348632812 380.1974792480469 C 684.7532348632812 375.637451171875 683.59326171875 369.7008056640625 681.2732543945312 362.387451171875 C 678.9465942382812 355.0741271972656 677.43994140625 350.20745849609375 676.7532348632812 347.7874755859375 C 674.5665893554688 340.0408020019531 673.4732666015625 333.69744873046875 673.4732666015625 328.7574768066406 C 673.4732666015625 323.810791015625 674.2732543945312 319.5841369628906 675.8732299804688 316.07745361328125 C 677.4666137695312 312.56414794921875 679.7432861328125 309.76080322265625 682.7032470703125 307.66748046875 C 688.449951171875 303.6541442871094 696.1765747070312 301.6474609375 705.8832397460938 301.6474609375 C 707.1099243164062 301.6474609375 707.7232666015625 302.21746826171875 707.7232666015625 303.35748291015625 L 705.8832397460938 317.5074768066406 C 705.6965942382812 318.6474609375 705.1265869140625 319.2641296386719 704.1732788085938 319.35748291015625 C 695.333251953125 319.9508056640625 690.9132690429688 322.57080078125 690.9132690429688 327.21746826171875 C 690.9132690429688 331.4974670410156 692.7899169921875 339.91748046875 696.5432739257812 352.47747802734375 C 700.3032836914062 365.0307922363281 702.1832275390625 374.02081298828125 702.1832275390625 379.4474792480469 C 702.1832275390625 400.00079345703125 689.949951171875 410.2774658203125 665.4832763671875 410.2774658203125 ZM 751.5714721679688 407.8074645996094 L 752.1114501953125 402.5474548339844 C 746.59814453125 407.5141296386719 740.3547973632812 409.9974670410156 733.3814697265625 409.9974670410156 C 728.1414794921875 409.9974670410156 724.281494140625 408.0841369628906 721.8014526367188 404.2574768066406 C 719.3148193359375 400.4307861328125 718.0714721679688 395.6441345214844 718.0714721679688 389.8974609375 C 718.0714721679688 388.9441223144531 718.164794921875 387.6474609375 718.3515014648438 386.0074768066406 L 724.8414916992188 328.7874755859375 C 724.9747924804688 327.6941223144531 725.5447998046875 327.1241455078125 726.5514526367188 327.07745361328125 L 740.3614501953125 326.5374755859375 C 741.3148193359375 326.6241455078125 741.79150390625 327.1007995605469 741.79150390625 327.96746826171875 L 735.6414794921875 381.907470703125 C 735.5081176757812 383.08746337890625 735.4414672851562 384.1807861328125 735.4414672851562 385.1874694824219 C 735.4414672851562 389.0141296386719 736.1814575195312 391.56414794921875 737.6614990234375 392.83746337890625 C 739.1414794921875 394.1174621582031 741.3748168945312 394.7574768066406 744.3614501953125 394.7574768066406 C 747.3414916992188 394.7574768066406 750.29150390625 394.1874694824219 753.2114868164062 393.0474548339844 L 760.4514770507812 328.7874755859375 C 760.5914916992188 327.6941223144531 761.1614990234375 327.1241455078125 762.1614990234375 327.07745361328125 L 775.9714965820312 326.59747314453125 C 776.9314575195312 326.6907958984375 777.4114990234375 327.1708068847656 777.4114990234375 328.0374755859375 L 768.521484375 407.1274719238281 C 768.3881225585938 408.2207946777344 767.7747802734375 408.81414794921875 766.6814575195312 408.907470703125 L 753.3514404296875 409.5174560546875 C 752.164794921875 409.47747802734375 751.5714721679688 408.907470703125 751.5714721679688 407.8074645996094 ZM 814.9488525390625 328.3774719238281 L 814.1988525390625 334.7374572753906 C 820.8988037109375 328.9041442871094 827.3355102539062 325.9874572753906 833.5088500976562 325.9874572753906 C 839.6888427734375 325.9874572753906 844.0088500976562 328.9707946777344 846.4688110351562 334.9374694824219 C 853.3021850585938 328.9707946777344 859.93212890625 325.9874572753906 866.3588256835938 325.9874572753906 C 874.2921752929688 325.9874572753906 879.3955078125 330.1807861328125 881.6688232421875 338.5674743652344 C 882.308837890625 340.887451171875 882.6288452148438 343.0508117675781 882.6288452148438 345.0574645996094 C 882.6288452148438 347.06414794921875 882.5621337890625 348.6807861328125 882.4288330078125 349.907470703125 L 875.8588256835938 407.1974792480469 C 875.6788330078125 408.33746337890625 875.1088256835938 408.9508056640625 874.1488037109375 409.0374755859375 L 860.3388061523438 409.5174560546875 C 859.3388061523438 409.4307861328125 858.8388061523438 408.9974670410156 858.8388061523438 408.21746826171875 L 865.058837890625 354.07745361328125 C 865.2454833984375 352.5307922363281 865.3388061523438 351.4608154296875 865.3388061523438 350.8674621582031 C 865.3388061523438 347.1341247558594 864.4488525390625 344.5941162109375 862.6688232421875 343.2474670410156 C 860.8887939453125 341.90081787109375 858.6888427734375 341.22747802734375 856.06884765625 341.22747802734375 C 853.4488525390625 341.22747802734375 850.8421630859375 341.70745849609375 848.2488403320312 342.66748046875 C 848.3821411132812 343.76080322265625 848.4488525390625 344.93414306640625 848.4488525390625 346.1874694824219 C 848.4488525390625 347.4407958984375 848.3821411132812 348.6807861328125 848.2488403320312 349.907470703125 L 841.6788330078125 407.1974792480469 C 841.4988403320312 408.33746337890625 840.9288330078125 408.9508056640625 839.9688110351562 409.0374755859375 L 826.1688232421875 409.5174560546875 C 825.1621704101562 409.4307861328125 824.6588134765625 408.9974670410156 824.6588134765625 408.21746826171875 L 830.8788452148438 354.07745361328125 C 831.018798828125 352.8974609375 831.0888061523438 351.82745361328125 831.0888061523438 350.8674621582031 C 831.0888061523438 347.1341247558594 830.212158203125 344.5941162109375 828.4588012695312 343.2474670410156 C 826.6988525390625 341.90081787109375 824.4655151367188 341.22747802734375 821.7588500976562 341.22747802734375 C 819.0454711914062 341.22747802734375 816.2288208007812 341.7974853515625 813.308837890625 342.9374694824219 L 806.06884765625 407.1274719238281 C 805.8821411132812 408.2674560546875 805.3121337890625 408.8841247558594 804.3588256835938 408.97747802734375 L 790.548828125 409.5174560546875 C 789.548828125 409.4307861328125 789.048828125 408.9974670410156 789.048828125 408.21746826171875 L 798.06884765625 328.71746826171875 C 798.2488403320312 327.71746826171875 798.81884765625 327.1708068847656 799.77880859375 327.07745361328125 L 813.1088256835938 326.59747314453125 C 814.3355102539062 326.6441345214844 814.9488525390625 327.2374572753906 814.9488525390625 328.3774719238281 ZM 922.3464965820312 328.3774719238281 L 921.5964965820312 334.7374572753906 C 928.2964477539062 328.9041442871094 934.733154296875 325.9874572753906 940.906494140625 325.9874572753906 C 947.0864868164062 325.9874572753906 951.406494140625 328.9707946777344 953.866455078125 334.9374694824219 C 960.6998291015625 328.9707946777344 967.329833984375 325.9874572753906 973.7564697265625 325.9874572753906 C 981.6898193359375 325.9874572753906 986.7931518554688 330.1807861328125 989.0664672851562 338.5674743652344 C 989.7064819335938 340.887451171875 990.0264892578125 343.0508117675781 990.0264892578125 345.0574645996094 C 990.0264892578125 347.06414794921875 989.9598388671875 348.6807861328125 989.8264770507812 349.907470703125 L 983.2564697265625 407.1974792480469 C 983.0764770507812 408.33746337890625 982.5064697265625 408.9508056640625 981.5464477539062 409.0374755859375 L 967.7364501953125 409.5174560546875 C 966.7364501953125 409.4307861328125 966.2364501953125 408.9974670410156 966.2364501953125 408.21746826171875 L 972.4564819335938 354.07745361328125 C 972.6431274414062 352.5307922363281 972.7364501953125 351.4608154296875 972.7364501953125 350.8674621582031 C 972.7364501953125 347.1341247558594 971.8464965820312 344.5941162109375 970.0664672851562 343.2474670410156 C 968.2864990234375 341.90081787109375 966.0864868164062 341.22747802734375 963.4664916992188 341.22747802734375 C 960.8464965820312 341.22747802734375 958.2398071289062 341.70745849609375 955.646484375 342.66748046875 C 955.77978515625 343.76080322265625 955.8464965820312 344.93414306640625 955.8464965820312 346.1874694824219 C 955.8464965820312 347.4407958984375 955.77978515625 348.6807861328125 955.646484375 349.907470703125 L 949.0764770507812 407.1974792480469 C 948.896484375 408.33746337890625 948.3264770507812 408.9508056640625 947.366455078125 409.0374755859375 L 933.5664672851562 409.5174560546875 C 932.559814453125 409.4307861328125 932.0564575195312 408.9974670410156 932.0564575195312 408.21746826171875 L 938.2764892578125 354.07745361328125 C 938.41650390625 352.8974609375 938.4864501953125 351.82745361328125 938.4864501953125 350.8674621582031 C 938.4864501953125 347.1341247558594 937.6098022460938 344.5941162109375 935.8564453125 343.2474670410156 C 934.0964965820312 341.90081787109375 931.8631591796875 341.22747802734375 929.156494140625 341.22747802734375 C 926.443115234375 341.22747802734375 923.62646484375 341.7974853515625 920.7064819335938 342.9374694824219 L 913.4664916992188 407.1274719238281 C 913.27978515625 408.2674560546875 912.7097778320312 408.8841247558594 911.7564697265625 408.97747802734375 L 897.9464721679688 409.5174560546875 C 896.9464721679688 409.4307861328125 896.4464721679688 408.9974670410156 896.4464721679688 408.21746826171875 L 905.4664916992188 328.71746826171875 C 905.646484375 327.71746826171875 906.2164916992188 327.1708068847656 907.1764526367188 327.07745361328125 L 920.5064697265625 326.59747314453125 C 921.733154296875 326.6441345214844 922.3464965820312 327.2374572753906 922.3464965820312 328.3774719238281 ZM 1008.3140258789062 396.4274597167969 C 1008.3140258789062 396.4274597167969 1008.04736328125 395.75079345703125 1007.5140380859375 394.3974609375 C 1006.980712890625 393.04412841796875 1006.520751953125 391.03411865234375 1006.134033203125 388.3674621582031 C 1005.7473754882812 385.7008056640625 1005.5540771484375 382.0408020019531 1005.5540771484375 377.387451171875 C 1005.5540771484375 372.74078369140625 1006.0540771484375 367.00079345703125 1007.0540771484375 360.16748046875 C 1010.3807373046875 337.38079833984375 1020.7240600585938 325.9874572753906 1038.0841064453125 325.9874572753906 C 1044.7840576171875 325.9874572753906 1049.9140625 328.2874755859375 1053.4739990234375 332.887451171875 C 1057.02734375 337.494140625 1058.8040771484375 343.4641418457031 1058.8040771484375 350.7974548339844 C 1058.8040771484375 358.137451171875 1058.347412109375 365.27081298828125 1057.43408203125 372.1974792480469 C 1057.2940673828125 373.42413330078125 1056.58740234375 374.060791015625 1055.3140869140625 374.10748291015625 L 1021.5440673828125 375.2774658203125 C 1021.4973754882812 375.95745849609375 1021.4740600585938 376.8674621582031 1021.4740600585938 378.0074768066406 C 1021.4740600585938 383.1541442871094 1022.3740844726562 387.234130859375 1024.174072265625 390.2474670410156 C 1025.9739990234375 393.2541198730469 1028.6973876953125 394.7574768066406 1032.343994140625 394.7574768066406 C 1035.99072265625 394.7574768066406 1039.3740234375 394.2207946777344 1042.4940185546875 393.1474609375 C 1045.6207275390625 392.0741271972656 1047.4573974609375 391.5374755859375 1048.0040283203125 391.5374755859375 C 1048.55078125 391.5374755859375 1049.02734375 391.7207946777344 1049.43408203125 392.08746337890625 C 1049.847412109375 392.4541320800781 1050.0540771484375 392.95745849609375 1050.0540771484375 393.59747314453125 L 1048.68408203125 405.6274719238281 C 1048.637451171875 406.3074645996094 1048.5107421875 406.75079345703125 1048.3040771484375 406.95745849609375 C 1048.10400390625 407.16412353515625 1047.7073974609375 407.38079833984375 1047.114013671875 407.6074523925781 C 1041.6007080078125 409.2008056640625 1036.290771484375 409.9974670410156 1031.18408203125 409.9974670410156 C 1026.077392578125 409.9974670410156 1022.1140747070312 409.3841247558594 1019.2940673828125 408.157470703125 C 1016.4674072265625 406.92413330078125 1014.1973876953125 405.3407897949219 1012.4840698242188 403.407470703125 C 1010.7774047851562 401.46746826171875 1009.3873901367188 399.14080810546875 1008.3140258789062 396.4274597167969 M 1023.18408203125 358.1174621582031 L 1022.5740356445312 362.4874572753906 L 1040.4140625 361.59747314453125 C 1041.1873779296875 361.5574645996094 1041.6873779296875 361.4208068847656 1041.9140625 361.1874694824219 C 1042.6007080078125 360.5074768066406 1042.944091796875 358.6274719238281 1042.944091796875 355.5474548339844 C 1042.944091796875 352.47412109375 1042.8406982421875 350.310791015625 1042.634033203125 349.0574645996094 C 1042.4273681640625 347.80413818359375 1042.0740966796875 346.5174560546875 1041.5740966796875 345.19744873046875 C 1040.52734375 342.2774658203125 1038.7374267578125 340.8174743652344 1036.2041015625 340.8174743652344 C 1033.6773681640625 340.8174743652344 1031.68408203125 341.25079345703125 1030.2239990234375 342.1174621582031 C 1026.99072265625 344.1241455078125 1024.64404296875 349.45745849609375 1023.18408203125 358.1174621582031 ZM 1118.2216796875 344.0374755859375 L 1110.91162109375 343.2774658203125 C 1104.9849853515625 343.2774658203125 1100.018310546875 344.4641418457031 1096.01171875 346.83746337890625 L 1089.24169921875 407.1274719238281 C 1089.0550537109375 408.2674560546875 1088.4849853515625 408.8841247558594 1087.53173828125 408.97747802734375 L 1073.7216796875 409.5174560546875 C 1072.7216796875 409.4307861328125 1072.2216796875 408.9974670410156 1072.2216796875 408.21746826171875 L 1081.24169921875 328.71746826171875 C 1081.421630859375 327.71746826171875 1081.99169921875 327.1708068847656 1082.95166015625 327.07745361328125 L 1096.28173828125 326.59747314453125 C 1097.50830078125 326.6441345214844 1098.1217041015625 327.2374572753906 1098.1217041015625 328.3774719238281 L 1097.3016357421875 335.41748046875 C 1100.2216796875 332.45745849609375 1103.04833984375 330.1441345214844 1105.78173828125 328.47747802734375 C 1108.5150146484375 326.8174743652344 1111.26171875 325.9874572753906 1114.021728515625 325.9874572753906 C 1116.7750244140625 325.9874572753906 1118.8817138671875 326.1007995605469 1120.3416748046875 326.32745361328125 C 1121.3016357421875 326.5074768066406 1121.78173828125 327.1441345214844 1121.78173828125 328.2374572753906 C 1121.78173828125 331.3841247558594 1121.2550048828125 336.0574645996094 1120.20166015625 342.2574768066406 C 1119.9749755859375 343.4441223144531 1119.3150634765625 344.0374755859375 1118.2216796875 344.0374755859375 ZM 1164.1805419921875 342.5274658203125 L 1156.4505615234375 342.1874694824219 C 1154.263916015625 342.1874694824219 1152.5438232421875 342.6874694824219 1151.29052734375 343.6874694824219 C 1150.0372314453125 344.6941223144531 1149.4105224609375 346.14080810546875 1149.4105224609375 348.0274658203125 C 1149.4105224609375 349.9208068847656 1149.75390625 352.0074768066406 1150.4405517578125 354.2874755859375 C 1151.3538818359375 357.3407897949219 1152.937255859375 360.8941345214844 1155.1905517578125 364.9474792480469 C 1157.44384765625 369.0074768066406 1159.00390625 371.88079833984375 1159.8704833984375 373.5674743652344 C 1162.5172119140625 378.8074645996094 1163.840576171875 383.7974548339844 1163.840576171875 388.5374755859375 C 1163.840576171875 395.41748046875 1161.8238525390625 400.7141418457031 1157.79052734375 404.4274597167969 C 1153.7572021484375 408.14080810546875 1147.63720703125 409.9974670410156 1139.4305419921875 409.9974670410156 C 1135.377197265625 409.9974670410156 1132.1439208984375 409.7807922363281 1129.73046875 409.34747314453125 C 1127.310546875 408.91412353515625 1125.9771728515625 408.5741271972656 1125.73046875 408.32745361328125 C 1125.4771728515625 408.0741271972656 1125.3505859375 407.67413330078125 1125.3505859375 407.1274719238281 L 1127.1304931640625 394.47747802734375 C 1127.2171630859375 393.3441467285156 1127.6138916015625 392.7774658203125 1128.320556640625 392.7774658203125 C 1129.0272216796875 392.7774658203125 1130.3839111328125 393.0274658203125 1132.3905029296875 393.5274658203125 C 1134.397216796875 394.0274658203125 1136.15380859375 394.2774658203125 1137.6605224609375 394.2774658203125 C 1143.2205810546875 394.2774658203125 1146.00048828125 392.0674743652344 1146.00048828125 387.6474609375 C 1146.00048828125 384.50079345703125 1145.3271484375 381.560791015625 1143.98046875 378.82745361328125 C 1142.6339111328125 376.0941467285156 1141.173828125 373.2674560546875 1139.6005859375 370.34747314453125 C 1138.0338134765625 367.43414306640625 1136.817138671875 365.1007995605469 1135.9505615234375 363.34747314453125 C 1135.0838623046875 361.58746337890625 1134.183837890625 359.1607971191406 1133.25048828125 356.0674743652344 C 1132.310546875 352.96746826171875 1131.840576171875 350.0508117675781 1131.840576171875 347.3174743652344 C 1131.840576171875 340.9374694824219 1133.743896484375 335.7874755859375 1137.550537109375 331.8674621582031 C 1141.357177734375 327.94744873046875 1146.9072265625 325.9874572753906 1154.2005615234375 325.9874572753906 C 1158.893798828125 325.9874572753906 1162.560546875 326.2141418457031 1165.2005615234375 326.66748046875 C 1166.340576171875 326.8541259765625 1166.9105224609375 327.44744873046875 1166.9105224609375 328.44744873046875 L 1165.4105224609375 340.6174621582031 C 1165.4105224609375 341.89080810546875 1165.00048828125 342.5274658203125 1164.1805419921875 342.5274658203125 Z" transform="matrix(1, 0, 0, 1, 0, 0)" style="fill: rgb(51, 51, 51); white-space: pre; color: rgb(51, 51, 51); stroke: rgb(0, 0, 0); stroke-width: 0;"/><path d="M 311.7279357910156 192.8699951171875 L 319.31793212890625 192.60000610351562 C 319.4979248046875 192.60665893554688 319.5879211425781 192.70333862304688 319.5879211425781 192.88999938964844 L 319.2879333496094 195.3000030517578 C 319.27459716796875 195.413330078125 319.2479248046875 195.4933319091797 319.2079162597656 195.5399932861328 C 319.1745910644531 195.586669921875 319.1045837402344 195.6133270263672 318.9979248046875 195.6199951171875 L 316.7179260253906 195.7100067138672 L 315.0079345703125 210.6699981689453 C 314.9879150390625 210.85667419433594 314.8879089355469 210.95333862304688 314.7079162597656 210.9600067138672 L 312.2679138183594 211.0500030517578 C 312.1145935058594 211.0500030517578 312.0379333496094 210.97332763671875 312.0379333496094 210.82000732421875 L 313.7579345703125 195.8000030517578 L 311.42791748046875 195.8699951171875 C 311.2279357910156 195.8633270263672 311.1279296875 195.77333068847656 311.1279296875 195.60000610351562 L 311.42791748046875 193.16000366210938 C 311.4346008300781 192.97332763671875 311.5345764160156 192.8766632080078 311.7279357910156 192.8699951171875 ZM 327.746826171875 199.82000732421875 L 326.496826171875 199.69000244140625 C 325.476806640625 199.69000244140625 324.62347412109375 199.89334106445312 323.93682861328125 200.3000030517578 L 322.7768249511719 210.63999938964844 C 322.7434997558594 210.8333282470703 322.6468200683594 210.93666076660156 322.48681640625 210.9499969482422 L 320.1168212890625 211.0500030517578 C 319.9434814453125 211.02999877929688 319.8568115234375 210.95333862304688 319.8568115234375 210.82000732421875 L 321.4068298339844 197.1999969482422 C 321.4401550292969 197.02667236328125 321.5368347167969 196.92999267578125 321.6968078613281 196.91000366210938 L 323.98681640625 196.8300018310547 C 324.1934814453125 196.836669921875 324.29681396484375 196.94000244140625 324.29681396484375 197.13999938964844 L 324.1568298339844 198.33999633789062 C 324.6568298339844 197.8333282470703 325.14349365234375 197.43666076660156 325.6168212890625 197.14999389648438 C 326.08349609375 196.8699951171875 326.5534973144531 196.72999572753906 327.0268249511719 196.72999572753906 C 327.5001525878906 196.72999572753906 327.86016845703125 196.75 328.1068115234375 196.7899932861328 C 328.27349853515625 196.81666564941406 328.3568115234375 196.92333984375 328.3568115234375 197.11000061035156 C 328.3568115234375 197.64999389648438 328.2668151855469 198.45333862304688 328.0868225097656 199.52000427246094 C 328.04681396484375 199.72000122070312 327.9335021972656 199.82000732421875 327.746826171875 199.82000732421875 ZM 339.5609130859375 197.13999938964844 L 338.0308837890625 210.64999389648438 C 338.0108947753906 210.85000610351562 337.910888671875 210.95333862304688 337.73089599609375 210.9600067138672 L 335.36090087890625 211.0500030517578 C 335.2008972167969 211.02999877929688 335.12091064453125 210.95333862304688 335.12091064453125 210.82000732421875 L 335.3409118652344 209.22999572753906 C 334.98089599609375 209.836669921875 334.5875549316406 210.30667114257812 334.160888671875 210.63999938964844 C 333.7342224121094 210.96665954589844 333.2542419433594 211.1300048828125 332.72088623046875 211.1300048828125 C 332.1942443847656 211.1300048828125 331.7442321777344 211.0366668701172 331.37091064453125 210.85000610351562 C 330.99090576171875 210.6699981689453 330.6842346191406 210.42999267578125 330.4508972167969 210.1300048828125 C 330.2109069824219 209.8300018310547 330.017578125 209.46665954589844 329.87091064453125 209.0399932861328 C 329.5975646972656 208.2933349609375 329.4609069824219 207.27000427246094 329.4609069824219 205.97000122070312 C 329.4609069824219 204.6699981689453 329.5475769042969 203.56666564941406 329.72088623046875 202.66000366210938 C 329.89422607421875 201.75332641601562 330.0475769042969 201.06333923339844 330.180908203125 200.58999633789062 C 330.3142395019531 200.11666870117188 330.49090576171875 199.6300048828125 330.7109069824219 199.1300048828125 C 330.93756103515625 198.6300048828125 331.1908874511719 198.2100067138672 331.47088623046875 197.8699951171875 C 332.11090087890625 197.11000061035156 332.9208984375 196.72999572753906 333.9009094238281 196.72999572753906 C 334.6275634765625 196.72999572753906 335.180908203125 196.90333557128906 335.5609130859375 197.25 C 335.9408874511719 197.59666442871094 336.2608947753906 198.11000061035156 336.5209045410156 198.7899932861328 L 336.660888671875 197.1999969482422 C 336.680908203125 197.02667236328125 336.7808837890625 196.92999267578125 336.9609069824219 196.91000366210938 L 339.2508850097656 196.8300018310547 C 339.45758056640625 196.85000610351562 339.5609130859375 196.95333862304688 339.5609130859375 197.13999938964844 M 332.410888671875 205.6300048828125 C 332.410888671875 207.49667358398438 332.910888671875 208.42999267578125 333.910888671875 208.42999267578125 C 334.34423828125 208.42999267578125 334.69757080078125 208.22999572753906 334.97088623046875 207.8300018310547 C 335.2442321777344 207.42999267578125 335.48089599609375 206.6233367919922 335.680908203125 205.41000366210938 C 335.8808898925781 204.19667053222656 335.98089599609375 203.31333923339844 335.98089599609375 202.75999450683594 C 335.98089599609375 202.2066650390625 335.9775695800781 201.85665893554688 335.97088623046875 201.7100067138672 C 335.9642333984375 201.55667114257812 335.94757080078125 201.36000061035156 335.9208984375 201.1199951171875 C 335.9009094238281 200.8733367919922 335.86090087890625 200.663330078125 335.8009033203125 200.49000549316406 C 335.7342224121094 200.32333374023438 335.6509094238281 200.15333557128906 335.5509033203125 199.97999572753906 C 335.34423828125 199.64666748046875 335.01422119140625 199.47999572753906 334.5609130859375 199.47999572753906 C 334.1075744628906 199.47999572753906 333.7508850097656 199.67999267578125 333.49090576171875 200.0800018310547 C 333.2242431640625 200.48666381835938 333.017578125 201.02667236328125 332.87091064453125 201.6999969482422 C 332.5642395019531 203.13333129882812 332.410888671875 204.44332885742188 332.410888671875 205.6300048828125 ZM 345.9723815917969 197.13999938964844 L 345.8423767089844 198.2100067138672 C 346.9623718261719 197.22332763671875 348.0390319824219 196.72999572753906 349.0723571777344 196.72999572753906 C 350.3857116699219 196.72999572753906 351.2156982421875 197.44667053222656 351.5623779296875 198.8800048828125 C 351.65570068359375 199.27333068847656 351.7023620605469 199.64334106445312 351.7023620605469 199.99000549316406 C 351.7023620605469 200.336669921875 351.68902587890625 200.61666870117188 351.6623840332031 200.8300018310547 L 350.5423583984375 210.64999389648438 C 350.509033203125 210.8433380126953 350.4090270996094 210.94667053222656 350.24237060546875 210.9600067138672 L 347.8823547363281 211.0500030517578 C 347.70904541015625 211.02999877929688 347.62237548828125 210.95333862304688 347.62237548828125 210.82000732421875 L 348.682373046875 201.5399932861328 C 348.70904541015625 201.33999633789062 348.7223815917969 201.1566619873047 348.7223815917969 200.99000549316406 C 348.7223815917969 200.35000610351562 348.5723571777344 199.9166717529297 348.2723693847656 199.69000244140625 C 347.9723815917969 199.4566650390625 347.5923767089844 199.33999633789062 347.1323547363281 199.33999633789062 C 346.66571044921875 199.33999633789062 346.182373046875 199.43666076660156 345.682373046875 199.6300048828125 L 344.432373046875 210.64999389648438 C 344.3990478515625 210.8433380126953 344.3023681640625 210.94667053222656 344.1423645019531 210.9600067138672 L 341.7723693847656 211.0500030517578 C 341.5990295410156 211.02999877929688 341.5123596191406 210.95333862304688 341.5123596191406 210.82000732421875 L 343.0623779296875 197.1999969482422 C 343.095703125 197.02667236328125 343.1923828125 196.92999267578125 343.35235595703125 196.91000366210938 L 345.6523742675781 196.8300018310547 C 345.8656921386719 196.836669921875 345.9723815917969 196.94000244140625 345.9723815917969 197.13999938964844 ZM 360.4249572753906 199.55999755859375 L 359.1049499511719 199.5 C 358.73162841796875 199.5 358.4349670410156 199.586669921875 358.2149658203125 199.75999450683594 C 358.0016174316406 199.93333435058594 357.89495849609375 200.18333435058594 357.89495849609375 200.50999450683594 C 357.89495849609375 200.8300018310547 357.9549560546875 201.18666076660156 358.074951171875 201.5800018310547 C 358.2283020019531 202.10000610351562 358.498291015625 202.7100067138672 358.88494873046875 203.41000366210938 C 359.2716369628906 204.10333251953125 359.5382995605469 204.5933380126953 359.6849670410156 204.8800048828125 C 360.1383056640625 205.77999877929688 360.3649597167969 206.6366729736328 360.3649597167969 207.4499969482422 C 360.3649597167969 208.6300048828125 360.0216369628906 209.5366668701172 359.3349609375 210.1699981689453 C 358.6416320800781 210.80999755859375 357.5916442871094 211.1300048828125 356.1849670410156 211.1300048828125 C 355.49163818359375 211.1300048828125 354.93829345703125 211.0933380126953 354.52496337890625 211.02000427246094 C 354.11163330078125 210.94667053222656 353.8816223144531 210.8866729736328 353.8349609375 210.83999633789062 C 353.7949523925781 210.8000030517578 353.77496337890625 210.73333740234375 353.77496337890625 210.63999938964844 L 354.074951171875 208.47000122070312 C 354.0882873535156 208.27667236328125 354.1582946777344 208.17999267578125 354.28497314453125 208.17999267578125 C 354.40496826171875 208.17999267578125 354.63494873046875 208.22000122070312 354.9749755859375 208.3000030517578 C 355.3216247558594 208.3866729736328 355.6249694824219 208.42999267578125 355.88494873046875 208.42999267578125 C 356.8382873535156 208.42999267578125 357.3149719238281 208.05332946777344 357.3149719238281 207.3000030517578 C 357.3149719238281 206.75999450683594 357.19830322265625 206.2566680908203 356.9649658203125 205.7899932861328 C 356.73162841796875 205.31666564941406 356.48162841796875 204.8300018310547 356.2149658203125 204.3300018310547 C 355.94830322265625 203.8300018310547 355.7383117675781 203.42999267578125 355.5849609375 203.1300048828125 C 355.43829345703125 202.8300018310547 355.28497314453125 202.413330078125 355.1249694824219 201.8800048828125 C 354.9649658203125 201.35333251953125 354.88494873046875 200.85333251953125 354.88494873046875 200.3800048828125 C 354.88494873046875 199.2866668701172 355.2116394042969 198.40333557128906 355.8649597167969 197.72999572753906 C 356.518310546875 197.06333923339844 357.4682922363281 196.72999572753906 358.7149658203125 196.72999572753906 C 359.5216369628906 196.72999572753906 360.1516418457031 196.76666259765625 360.6049499511719 196.83999633789062 C 360.7983093261719 196.8733367919922 360.89495849609375 196.97666931152344 360.89495849609375 197.14999389648438 L 360.63494873046875 199.22999572753906 C 360.63494873046875 199.4499969482422 360.5649719238281 199.55999755859375 360.4249572753906 199.55999755859375 ZM 362.1349792480469 216.41000366210938 L 364.31500244140625 197.2100067138672 C 364.3349914550781 197.02333068847656 364.4316711425781 196.92333984375 364.60498046875 196.91000366210938 L 366.9649963378906 196.8300018310547 C 367.1383361816406 196.85000610351562 367.2250061035156 196.93333435058594 367.2250061035156 197.0800018310547 L 366.9849853515625 198.63999938964844 C 367.3450012207031 198.02000427246094 367.73834228515625 197.54666137695312 368.1650085449219 197.22000122070312 C 368.5916748046875 196.89334106445312 369.0716552734375 196.72999572753906 369.60498046875 196.72999572753906 C 370.1383361816406 196.72999572753906 370.5950012207031 196.82000732421875 370.9750061035156 197 C 371.34832763671875 197.18666076660156 371.6549987792969 197.42999267578125 371.8949890136719 197.72999572753906 C 372.1283264160156 198.02999877929688 372.3216552734375 198.38999938964844 372.4750061035156 198.80999755859375 C 372.7483215332031 199.56333923339844 372.8849792480469 200.58999633789062 372.8849792480469 201.88999938964844 C 372.8849792480469 203.19000244140625 372.79498291015625 204.2933349609375 372.614990234375 205.1999969482422 C 372.441650390625 206.10665893554688 372.288330078125 206.79666137695312 372.1549987792969 207.27000427246094 C 372.02166748046875 207.7433319091797 371.8450012207031 208.22999572753906 371.625 208.72999572753906 C 371.3983154296875 209.22999572753906 371.1449890136719 209.64666748046875 370.864990234375 209.97999572753906 C 370.2250061035156 210.74667358398438 369.4716491699219 211.1300048828125 368.60498046875 211.1300048828125 C 367.73834228515625 211.1300048828125 367.1116638183594 210.94667053222656 366.7250061035156 210.5800018310547 C 366.3450012207031 210.2133331298828 366.0183410644531 209.6566619873047 365.7449951171875 208.91000366210938 L 365.05499267578125 216.3300018310547 C 365.04833984375 216.51666259765625 364.94500732421875 216.61666870117188 364.7449951171875 216.6300048828125 L 362.4549865722656 216.7100067138672 C 362.2416687011719 216.70333862304688 362.1349792480469 216.60333251953125 362.1349792480469 216.41000366210938 M 369.93499755859375 202.22000122070312 C 369.93499755859375 200.36000061035156 369.43499755859375 199.42999267578125 368.43499755859375 199.42999267578125 C 367.9816589355469 199.42999267578125 367.6216735839844 199.6300048828125 367.35498046875 200.02999877929688 C 367.08831787109375 200.42999267578125 366.85498046875 201.24667358398438 366.6549987792969 202.47999572753906 C 366.4549865722656 203.7133331298828 366.35498046875 204.59666442871094 366.35498046875 205.1300048828125 C 366.35498046875 205.6699981689453 366.35833740234375 206.00999450683594 366.364990234375 206.14999389648438 C 366.3716735839844 206.29666137695312 366.3883361816406 206.49667358398438 366.4150085449219 206.75 C 366.43499755859375 206.99667358398438 366.47833251953125 207.20333862304688 366.54498291015625 207.3699951171875 C 366.60498046875 207.52999877929688 366.68499755859375 207.69332885742188 366.7850036621094 207.86000061035156 C 366.9916687011719 208.1999969482422 367.3216552734375 208.3699951171875 367.7749938964844 208.3699951171875 C 368.22833251953125 208.3699951171875 368.5849914550781 208.17333984375 368.8450012207031 207.77999877929688 C 369.10498046875 207.3800048828125 369.3083190917969 206.836669921875 369.4549865722656 206.14999389648438 C 369.7749938964844 204.68333435058594 369.93499755859375 203.3733367919922 369.93499755859375 202.22000122070312 ZM 379.437255859375 211.1300048828125 C 379.437255859375 211.1300048828125 379.0906066894531 211.1300048828125 378.39727783203125 211.1300048828125 C 377.7039489746094 211.1300048828125 377.033935546875 210.7133331298828 376.38726806640625 209.8800048828125 C 375.74725341796875 209.04666137695312 375.4272766113281 207.8333282470703 375.4272766113281 206.24000549316406 C 375.4272766113281 205.5 375.50726318359375 204.53334045410156 375.6672668457031 203.33999633789062 C 375.83392333984375 202.13999938964844 375.9872741699219 201.27000427246094 376.12725830078125 200.72999572753906 C 376.26727294921875 200.18333435058594 376.4672546386719 199.64999389648438 376.7272644042969 199.1300048828125 C 376.9805908203125 198.61666870117188 377.283935546875 198.19000244140625 377.63726806640625 197.85000610351562 C 378.4106140136719 197.10333251953125 379.457275390625 196.72999572753906 380.77728271484375 196.72999572753906 C 382.6506042480469 196.72999572753906 383.8672790527344 197.4166717529297 384.4272766113281 198.7899932861328 C 384.7206115722656 199.52333068847656 384.8672790527344 200.413330078125 384.8672790527344 201.4600067138672 C 384.8672790527344 202.5 384.7872619628906 203.5800018310547 384.62725830078125 204.6999969482422 C 384.4672546386719 205.81333923339844 384.3172607421875 206.6366729736328 384.1772766113281 207.1699981689453 C 384.0372619628906 207.7100067138672 383.8406066894531 208.23333740234375 383.5872802734375 208.74000549316406 C 383.33392333984375 209.25332641601562 383.0306091308594 209.67999267578125 382.6772766113281 210.02000427246094 C 381.9039306640625 210.75999450683594 380.8239440917969 211.1300048828125 379.437255859375 211.1300048828125 M 381.50726318359375 206 C 381.59393310546875 205.5800018310547 381.7039489746094 204.80332946777344 381.8372802734375 203.6699981689453 C 381.9772644042969 202.52999877929688 382.0472717285156 201.68666076660156 382.0472717285156 201.13999938964844 C 382.0472717285156 199.81333923339844 381.5639343261719 199.14999389648438 380.5972595214844 199.14999389648438 C 380.1506042480469 199.14999389648438 379.7806091308594 199.36666870117188 379.4872741699219 199.8000030517578 C 379.1939392089844 200.22666931152344 378.957275390625 200.94000244140625 378.77728271484375 201.94000244140625 C 378.4172668457031 203.97332763671875 378.2372741699219 205.6233367919922 378.2372741699219 206.88999938964844 C 378.2372741699219 208.1566619873047 378.71392822265625 208.7899932861328 379.6672668457031 208.7899932861328 C 380.12060546875 208.7899932861328 380.49725341796875 208.57000732421875 380.7972717285156 208.1300048828125 C 381.0972595214844 207.69667053222656 381.33392333984375 206.98666381835938 381.50726318359375 206 ZM 395.00537109375 199.82000732421875 L 393.75537109375 199.69000244140625 C 392.7353515625 199.69000244140625 391.88201904296875 199.89334106445312 391.19537353515625 200.3000030517578 L 390.0353698730469 210.63999938964844 C 390.0020446777344 210.8333282470703 389.9053649902344 210.93666076660156 389.745361328125 210.9499969482422 L 387.3753662109375 211.0500030517578 C 387.2020263671875 211.02999877929688 387.1153564453125 210.95333862304688 387.1153564453125 210.82000732421875 L 388.6653747558594 197.1999969482422 C 388.6986999511719 197.02667236328125 388.7953796386719 196.92999267578125 388.9553527832031 196.91000366210938 L 391.245361328125 196.8300018310547 C 391.4520263671875 196.836669921875 391.55535888671875 196.94000244140625 391.55535888671875 197.13999938964844 L 391.4153747558594 198.33999633789062 C 391.9153747558594 197.8333282470703 392.40203857421875 197.43666076660156 392.8753662109375 197.14999389648438 C 393.342041015625 196.8699951171875 393.8120422363281 196.72999572753906 394.2853698730469 196.72999572753906 C 394.7586975097656 196.72999572753906 395.11871337890625 196.75 395.3653564453125 196.7899932861328 C 395.53204345703125 196.81666564941406 395.6153564453125 196.92333984375 395.6153564453125 197.11000061035156 C 395.6153564453125 197.64999389648438 395.5253601074219 198.45333862304688 395.3453674316406 199.52000427246094 C 395.30535888671875 199.72000122070312 395.1920471191406 199.82000732421875 395.00537109375 199.82000732421875 ZM 398.2694396972656 196.8800048828125 C 398.4494323730469 195.16000366210938 398.5694580078125 194.27000427246094 398.62945556640625 194.20999145507812 C 398.6827697753906 194.14999389648438 398.7627868652344 194.11666870117188 398.86944580078125 194.11000061035156 L 401.10943603515625 194.02999877929688 C 401.3227844238281 194.0433349609375 401.429443359375 194.13999938964844 401.429443359375 194.32000732421875 C 401.276123046875 195.18666076660156 401.1494445800781 196.02000427246094 401.0494384765625 196.82000732421875 L 403.7794494628906 196.72999572753906 C 403.96612548828125 196.73666381835938 404.0594482421875 196.836669921875 404.0594482421875 197.02999877929688 L 403.72943115234375 198.88999938964844 C 403.7027893066406 199.0833282470703 403.6061096191406 199.18333435058594 403.439453125 199.19000244140625 L 400.7594299316406 199.2899932861328 C 400.2261047363281 204.07000732421875 399.9594421386719 206.7066650390625 399.9594421386719 207.1999969482422 C 399.9594421386719 208.1133270263672 400.3494567871094 208.57000732421875 401.12945556640625 208.57000732421875 C 401.5294494628906 208.57000732421875 401.9161071777344 208.50999450683594 402.2894287109375 208.38999938964844 C 402.66943359375 208.26333618164062 402.9060974121094 208.1999969482422 402.99945068359375 208.1999969482422 C 403.1594543457031 208.1999969482422 403.23944091796875 208.3000030517578 403.23944091796875 208.5 L 402.99945068359375 210.5500030517578 C 402.97943115234375 210.6699981689453 402.9494323730469 210.7566680908203 402.9094543457031 210.80999755859375 C 402.8627624511719 210.8633270263672 402.66943359375 210.92999267578125 402.3294372558594 211.00999450683594 C 401.98944091796875 211.08999633789062 401.4094543457031 211.1300048828125 400.5894470214844 211.1300048828125 C 399.3894348144531 211.1300048828125 398.49945068359375 210.85000610351562 397.91943359375 210.2899932861328 C 397.3460998535156 209.72999572753906 397.0594482421875 208.89666748046875 397.0594482421875 207.7899932861328 C 397.0594482421875 206.67666625976562 397.3661193847656 203.85665893554688 397.97943115234375 199.3300018310547 L 396.8294372558594 199.3699951171875 C 396.6361083984375 199.3633270263672 396.5394287109375 199.26666259765625 396.5394287109375 199.0800018310547 L 396.85943603515625 197.1999969482422 C 396.87945556640625 197.02000427246094 396.97943115234375 196.92333984375 397.1594543457031 196.91000366210938 L 398.2694396972656 196.8800048828125 Z" transform="matrix(5.144838333129883, 0, 0, 5.144838333129883, -1139.0418701171875, -624.4480590820312)" style="fill: rgb(51, 51, 51); white-space: pre; color: rgb(51, 51, 51);"/><path d="M 256.09112548828125 596 L 246.5411376953125 596 L 246.5411376953125 578.8699951171875 L 256.09112548828125 578.8699951171875 L 256.09112548828125 580.6400146484375 L 248.53114318847656 580.6400146484375 L 248.53114318847656 586.1599731445312 L 255.63113403320312 586.1599731445312 L 255.63113403320312 587.9099731445312 L 248.53114318847656 587.9099731445312 L 248.53114318847656 594.219970703125 L 256.09112548828125 594.219970703125 L 256.09112548828125 596 ZM 268.3586730957031 596 L 268.3586730957031 587.6900024414062 C 268.3586730957031 586.643310546875 268.12200927734375 585.8633422851562 267.648681640625 585.3499755859375 C 267.1686706542969 584.8300170898438 266.4219970703125 584.5700073242188 265.4086608886719 584.5700073242188 C 264.06201171875 584.5700073242188 263.07867431640625 584.933349609375 262.45867919921875 585.6599731445312 C 261.8320007324219 586.3866577148438 261.5186767578125 587.586669921875 261.5186767578125 589.260009765625 L 261.5186767578125 596 L 259.56866455078125 596 L 259.56866455078125 583.1599731445312 L 261.148681640625 583.1599731445312 L 261.4686584472656 584.9099731445312 L 261.55865478515625 584.9099731445312 C 261.95867919921875 584.2766723632812 262.5186767578125 583.7866821289062 263.2386779785156 583.4400024414062 C 263.95867919921875 583.0933227539062 264.7586669921875 582.9199829101562 265.638671875 582.9199829101562 C 267.1853332519531 582.9199829101562 268.35198974609375 583.2933349609375 269.138671875 584.0399780273438 C 269.9186706542969 584.7866821289062 270.30865478515625 585.97998046875 270.30865478515625 587.6199951171875 L 270.30865478515625 596 L 268.3586730957031 596 ZM 278.4529724121094 594.6300048828125 C 278.7996520996094 594.6300048828125 279.13299560546875 594.6033325195312 279.4529724121094 594.5499877929688 C 279.7729797363281 594.5033569335938 280.02630615234375 594.4500122070312 280.2129821777344 594.3900146484375 L 280.2129821777344 595.8800048828125 C 279.9996337890625 595.9866943359375 279.68963623046875 596.0700073242188 279.2829895019531 596.1300048828125 C 278.8696594238281 596.1966552734375 278.4996337890625 596.22998046875 278.1729736328125 596.22998046875 C 275.6863098144531 596.22998046875 274.4429931640625 594.92333984375 274.4429931640625 592.3099975585938 L 274.4429931640625 584.6699829101562 L 272.60296630859375 584.6699829101562 L 272.60296630859375 583.72998046875 L 274.4429931640625 582.9199829101562 L 275.2629699707031 580.1799926757812 L 276.3929748535156 580.1799926757812 L 276.3929748535156 583.1599731445312 L 280.12298583984375 583.1599731445312 L 280.12298583984375 584.6699829101562 L 276.3929748535156 584.6699829101562 L 276.3929748535156 592.22998046875 C 276.3929748535156 593.0033569335938 276.5763244628906 593.5966796875 276.9429931640625 594.010009765625 C 277.3096618652344 594.42333984375 277.81298828125 594.6300048828125 278.4529724121094 594.6300048828125 ZM 288.1922607421875 596.22998046875 C 286.2922668457031 596.22998046875 284.7922668457031 595.6533203125 283.6922607421875 594.5 C 282.59893798828125 593.3466796875 282.0522766113281 591.739990234375 282.0522766113281 589.6799926757812 C 282.0522766113281 587.6133422851562 282.562255859375 585.969970703125 283.582275390625 584.75 C 284.6022644042969 583.530029296875 285.96893310546875 582.9199829101562 287.6822814941406 582.9199829101562 C 289.29559326171875 582.9199829101562 290.5689392089844 583.4500122070312 291.50225830078125 584.510009765625 C 292.4422607421875 585.5700073242188 292.9122619628906 586.9666748046875 292.9122619628906 588.7000122070312 L 292.9122619628906 589.9299926757812 L 284.062255859375 589.9299926757812 C 284.1022644042969 591.4366455078125 284.485595703125 592.5800170898438 285.2122802734375 593.3599853515625 C 285.9322814941406 594.1466674804688 286.9489440917969 594.5399780273438 288.26226806640625 594.5399780273438 C 289.64227294921875 594.5399780273438 291.0089416503906 594.25 292.3622741699219 593.6699829101562 L 292.3622741699219 595.4000244140625 C 291.67559814453125 595.7000122070312 291.0256042480469 595.913330078125 290.4122619628906 596.0399780273438 C 289.7989501953125 596.1666870117188 289.0589294433594 596.22998046875 288.1922607421875 596.22998046875 M 287.6622619628906 584.5499877929688 C 286.6289367675781 584.5499877929688 285.80560302734375 584.8866577148438 285.1922607421875 585.5599975585938 C 284.5789489746094 586.2333374023438 284.21893310546875 587.163330078125 284.1122741699219 588.3499755859375 L 290.832275390625 588.3499755859375 C 290.832275390625 587.1233520507812 290.55560302734375 586.183349609375 290.00225830078125 585.530029296875 C 289.4555969238281 584.8766479492188 288.67559814453125 584.5499877929688 287.6622619628906 584.5499877929688 ZM 302.0793762207031 582.9199829101562 C 302.6527099609375 582.9199829101562 303.166015625 582.9666748046875 303.6193542480469 583.0599975585938 L 303.349365234375 584.8699951171875 C 302.8160400390625 584.75 302.3460388183594 584.6900024414062 301.9393615722656 584.6900024414062 C 300.89935302734375 584.6900024414062 300.0126953125 585.1133422851562 299.27935791015625 585.9600219726562 C 298.53936767578125 586.7999877929688 298.16937255859375 587.8499755859375 298.16937255859375 589.1099853515625 L 298.16937255859375 596 L 296.2193603515625 596 L 296.2193603515625 583.1599731445312 L 297.8293762207031 583.1599731445312 L 298.04937744140625 585.5399780273438 L 298.1393737792969 585.5399780273438 C 298.6193542480469 584.7000122070312 299.196044921875 584.0533447265625 299.8693542480469 583.5999755859375 C 300.5360412597656 583.1466674804688 301.272705078125 582.9199829101562 302.0793762207031 582.9199829101562 ZM 310.2093811035156 583.1599731445312 L 312.29937744140625 583.1599731445312 L 315.1094055175781 590.47998046875 C 315.7294006347656 592.1533203125 316.11273193359375 593.3599853515625 316.2593994140625 594.0999755859375 L 316.3493957519531 594.0999755859375 C 316.4560546875 593.7000122070312 316.6694030761719 593.02001953125 316.9893798828125 592.0599975585938 C 317.3160705566406 591.0933227539062 318.3760681152344 588.1266479492188 320.1694030761719 583.1599731445312 L 322.2593994140625 583.1599731445312 L 316.7393798828125 597.780029296875 C 316.1927185058594 599.2266845703125 315.552734375 600.2533569335938 314.81939697265625 600.8599853515625 C 314.09271240234375 601.4666748046875 313.19940185546875 601.77001953125 312.139404296875 601.77001953125 C 311.5393981933594 601.77001953125 310.9527282714844 601.7033081054688 310.37939453125 601.5700073242188 L 310.37939453125 600.010009765625 C 310.8060607910156 600.1033325195312 311.28607177734375 600.1500244140625 311.81939697265625 600.1500244140625 C 313.1527404785156 600.1500244140625 314.1060485839844 599.4000244140625 314.67938232421875 597.9000244140625 L 315.389404296875 596.0700073242188 L 310.2093811035156 583.1599731445312 ZM 335.4267272949219 589.5700073242188 C 335.4267272949219 591.663330078125 334.9000549316406 593.2966918945312 333.84674072265625 594.469970703125 C 332.7867431640625 595.643310546875 331.330078125 596.22998046875 329.47674560546875 596.22998046875 C 328.3233947753906 596.22998046875 327.30340576171875 595.9633178710938 326.416748046875 595.4299926757812 C 325.5234069824219 594.8900146484375 324.8334045410156 594.1166381835938 324.34674072265625 593.1099853515625 C 323.8667297363281 592.0966796875 323.6267395019531 590.9166870117188 323.6267395019531 589.5700073242188 C 323.6267395019531 587.4766845703125 324.1500549316406 585.8433227539062 325.1967468261719 584.6699829101562 C 326.243408203125 583.5033569335938 327.6967468261719 582.9199829101562 329.5567321777344 582.9199829101562 C 331.3500671386719 582.9199829101562 332.7767333984375 583.5166625976562 333.83673095703125 584.7100219726562 C 334.896728515625 585.9099731445312 335.4267272949219 587.530029296875 335.4267272949219 589.5700073242188 M 325.63671875 589.5700073242188 C 325.63671875 591.2100219726562 325.96673583984375 592.4600219726562 326.6267395019531 593.3200073242188 C 327.2800598144531 594.1799926757812 328.243408203125 594.6099853515625 329.5167236328125 594.6099853515625 C 330.7900695800781 594.6099853515625 331.7567443847656 594.1799926757812 332.416748046875 593.3200073242188 C 333.07672119140625 592.4666748046875 333.40673828125 591.2166748046875 333.40673828125 589.5700073242188 C 333.40673828125 587.9366455078125 333.07672119140625 586.6966552734375 332.416748046875 585.8499755859375 C 331.7567443847656 584.9966430664062 330.78338623046875 584.5700073242188 329.4967346191406 584.5700073242188 C 328.223388671875 584.5700073242188 327.2633972167969 584.989990234375 326.6167297363281 585.8300170898438 C 325.9634094238281 586.663330078125 325.63671875 587.9099731445312 325.63671875 589.5700073242188 ZM 340.6604309082031 583.1599731445312 L 340.6604309082031 591.489990234375 C 340.6604309082031 592.5366821289062 340.9004211425781 593.316650390625 341.3804016113281 593.8300170898438 C 341.853759765625 594.3499755859375 342.5970764160156 594.6099853515625 343.61041259765625 594.6099853515625 C 344.95709228515625 594.6099853515625 345.9404296875 594.239990234375 346.5604248046875 593.5 C 347.180419921875 592.7666625976562 347.49041748046875 591.5700073242188 347.49041748046875 589.9099731445312 L 347.49041748046875 583.1599731445312 L 349.4404296875 583.1599731445312 L 349.4404296875 596 L 347.8304138183594 596 L 347.5504150390625 594.280029296875 L 347.4504089355469 594.280029296875 C 347.0504150390625 594.913330078125 346.4970703125 595.3966674804688 345.7904052734375 595.72998046875 C 345.083740234375 596.0633544921875 344.2770690917969 596.22998046875 343.37042236328125 596.22998046875 C 341.8037414550781 596.22998046875 340.6337585449219 595.8599853515625 339.86041259765625 595.1199951171875 C 339.0804138183594 594.3800048828125 338.6904296875 593.193359375 338.6904296875 591.5599975585938 L 338.6904296875 583.1599731445312 L 340.6604309082031 583.1599731445312 ZM 359.4062194824219 582.9199829101562 C 359.97955322265625 582.9199829101562 360.49285888671875 582.9666748046875 360.9461975097656 583.0599975585938 L 360.67620849609375 584.8699951171875 C 360.14288330078125 584.75 359.6728820800781 584.6900024414062 359.2662048339844 584.6900024414062 C 358.2261962890625 584.6900024414062 357.33953857421875 585.1133422851562 356.606201171875 585.9600219726562 C 355.8662109375 586.7999877929688 355.4962158203125 587.8499755859375 355.4962158203125 589.1099853515625 L 355.4962158203125 596 L 353.54620361328125 596 L 353.54620361328125 583.1599731445312 L 355.1562194824219 583.1599731445312 L 355.376220703125 585.5399780273438 L 355.4662170410156 585.5399780273438 C 355.9461975097656 584.7000122070312 356.52288818359375 584.0533447265625 357.1961975097656 583.5999755859375 C 357.8628845214844 583.1466674804688 358.59954833984375 582.9199829101562 359.4062194824219 582.9199829101562 ZM 373.72625732421875 594.6300048828125 C 374.07293701171875 594.6300048828125 374.4062805175781 594.6033325195312 374.72625732421875 594.5499877929688 C 375.0462646484375 594.5033569335938 375.2995910644531 594.4500122070312 375.48626708984375 594.3900146484375 L 375.48626708984375 595.8800048828125 C 375.2729187011719 595.9866943359375 374.9629211425781 596.0700073242188 374.5562744140625 596.1300048828125 C 374.1429443359375 596.1966552734375 373.7729187011719 596.22998046875 373.4462585449219 596.22998046875 C 370.9595947265625 596.22998046875 369.7162780761719 594.92333984375 369.7162780761719 592.3099975585938 L 369.7162780761719 584.6699829101562 L 367.8762512207031 584.6699829101562 L 367.8762512207031 583.72998046875 L 369.7162780761719 582.9199829101562 L 370.5362548828125 580.1799926757812 L 371.666259765625 580.1799926757812 L 371.666259765625 583.1599731445312 L 375.3962707519531 583.1599731445312 L 375.3962707519531 584.6699829101562 L 371.666259765625 584.6699829101562 L 371.666259765625 592.22998046875 C 371.666259765625 593.0033569335938 371.849609375 593.5966796875 372.2162780761719 594.010009765625 C 372.58294677734375 594.42333984375 373.0862731933594 594.6300048828125 373.72625732421875 594.6300048828125 ZM 383.4840393066406 596.22998046875 C 381.58404541015625 596.22998046875 380.08404541015625 595.6533203125 378.9840393066406 594.5 C 377.8907165527344 593.3466796875 377.34405517578125 591.739990234375 377.34405517578125 589.6799926757812 C 377.34405517578125 587.6133422851562 377.8540344238281 585.969970703125 378.8740539550781 584.75 C 379.89404296875 583.530029296875 381.2607116699219 582.9199829101562 382.97406005859375 582.9199829101562 C 384.5873718261719 582.9199829101562 385.8607177734375 583.4500122070312 386.7940368652344 584.510009765625 C 387.7340393066406 585.5700073242188 388.20404052734375 586.9666748046875 388.20404052734375 588.7000122070312 L 388.20404052734375 589.9299926757812 L 379.3540344238281 589.9299926757812 C 379.39404296875 591.4366455078125 379.7773742675781 592.5800170898438 380.5040588378906 593.3599853515625 C 381.22406005859375 594.1466674804688 382.24072265625 594.5399780273438 383.5540466308594 594.5399780273438 C 384.9340515136719 594.5399780273438 386.30072021484375 594.25 387.654052734375 593.6699829101562 L 387.654052734375 595.4000244140625 C 386.9673767089844 595.7000122070312 386.3173828125 595.913330078125 385.70404052734375 596.0399780273438 C 385.0907287597656 596.1666870117188 384.3507080078125 596.22998046875 383.4840393066406 596.22998046875 M 382.95404052734375 584.5499877929688 C 381.92071533203125 584.5499877929688 381.0973815917969 584.8866577148438 380.4840393066406 585.5599975585938 C 379.8707275390625 586.2333374023438 379.5107116699219 587.163330078125 379.404052734375 588.3499755859375 L 386.1240539550781 588.3499755859375 C 386.1240539550781 587.1233520507812 385.8473815917969 586.183349609375 385.2940368652344 585.530029296875 C 384.74737548828125 584.8766479492188 383.9673767089844 584.5499877929688 382.95404052734375 584.5499877929688 ZM 394.61114501953125 589.4299926757812 L 390.1411437988281 583.1599731445312 L 392.36114501953125 583.1599731445312 L 395.74114990234375 588.0800170898438 L 399.12115478515625 583.1599731445312 L 401.3111267089844 583.1599731445312 L 396.8411560058594 589.4299926757812 L 401.5411376953125 596 L 399.3411560058594 596 L 395.74114990234375 590.7999877929688 L 392.11114501953125 596 L 389.9111328125 596 L 394.61114501953125 589.4299926757812 ZM 408.229736328125 594.6300048828125 C 408.576416015625 594.6300048828125 408.9097595214844 594.6033325195312 409.229736328125 594.5499877929688 C 409.54974365234375 594.5033569335938 409.8030700683594 594.4500122070312 409.98974609375 594.3900146484375 L 409.98974609375 595.8800048828125 C 409.7763977050781 595.9866943359375 409.4664001464844 596.0700073242188 409.05975341796875 596.1300048828125 C 408.64642333984375 596.1966552734375 408.2763977050781 596.22998046875 407.9497375488281 596.22998046875 C 405.46307373046875 596.22998046875 404.2197570800781 594.92333984375 404.2197570800781 592.3099975585938 L 404.2197570800781 584.6699829101562 L 402.3797302246094 584.6699829101562 L 402.3797302246094 583.72998046875 L 404.2197570800781 582.9199829101562 L 405.03973388671875 580.1799926757812 L 406.16973876953125 580.1799926757812 L 406.16973876953125 583.1599731445312 L 409.8997497558594 583.1599731445312 L 409.8997497558594 584.6699829101562 L 406.16973876953125 584.6699829101562 L 406.16973876953125 592.22998046875 C 406.16973876953125 593.0033569335938 406.35308837890625 593.5966796875 406.7197570800781 594.010009765625 C 407.08642578125 594.42333984375 407.5897521972656 594.6300048828125 408.229736328125 594.6300048828125 ZM 427.5670471191406 596 L 427.5670471191406 587.6900024414062 C 427.5670471191406 586.643310546875 427.33038330078125 585.8633422851562 426.8570556640625 585.3499755859375 C 426.3770446777344 584.8300170898438 425.63037109375 584.5700073242188 424.6170349121094 584.5700073242188 C 423.2637023925781 584.5700073242188 422.27703857421875 584.9400024414062 421.65704345703125 585.6799926757812 C 421.03704833984375 586.413330078125 420.72705078125 587.6166381835938 420.72705078125 589.2899780273438 L 420.72705078125 596 L 418.77703857421875 596 L 418.77703857421875 577.77001953125 L 420.72705078125 577.77001953125 L 420.72705078125 583.2899780273438 C 420.72705078125 583.9500122070312 420.6936950683594 584.5 420.6270446777344 584.9400024414062 L 420.7470397949219 584.9400024414062 C 421.1336975097656 584.3200073242188 421.68035888671875 583.8333129882812 422.3870544433594 583.47998046875 C 423.0937194824219 583.1266479492188 423.9003601074219 582.9500122070312 424.8070373535156 582.9500122070312 C 426.37371826171875 582.9500122070312 427.5503845214844 583.3200073242188 428.3370361328125 584.0599975585938 C 429.12371826171875 584.806640625 429.51702880859375 585.9933471679688 429.51702880859375 587.6199951171875 L 429.51702880859375 596 L 427.5670471191406 596 ZM 438.9228515625 596.22998046875 C 437.0228576660156 596.22998046875 435.5228576660156 595.6533203125 434.4228515625 594.5 C 433.32952880859375 593.3466796875 432.7828674316406 591.739990234375 432.7828674316406 589.6799926757812 C 432.7828674316406 587.6133422851562 433.2928466796875 585.969970703125 434.3128662109375 584.75 C 435.3328552246094 583.530029296875 436.69952392578125 582.9199829101562 438.4128723144531 582.9199829101562 C 440.02618408203125 582.9199829101562 441.2995300292969 583.4500122070312 442.23284912109375 584.510009765625 C 443.1728515625 585.5700073242188 443.6428527832031 586.9666748046875 443.6428527832031 588.7000122070312 L 443.6428527832031 589.9299926757812 L 434.7928466796875 589.9299926757812 C 434.8328552246094 591.4366455078125 435.2161865234375 592.5800170898438 435.94287109375 593.3599853515625 C 436.6628723144531 594.1466674804688 437.6795349121094 594.5399780273438 438.99285888671875 594.5399780273438 C 440.37286376953125 594.5399780273438 441.7395324707031 594.25 443.0928649902344 593.6699829101562 L 443.0928649902344 595.4000244140625 C 442.40618896484375 595.7000122070312 441.7561950683594 595.913330078125 441.1428527832031 596.0399780273438 C 440.529541015625 596.1666870117188 439.7895202636719 596.22998046875 438.9228515625 596.22998046875 M 438.3928527832031 584.5499877929688 C 437.3595275878906 584.5499877929688 436.53619384765625 584.8866577148438 435.9228515625 585.5599975585938 C 435.3095397949219 586.2333374023438 434.94952392578125 587.163330078125 434.8428649902344 588.3499755859375 L 441.5628662109375 588.3499755859375 C 441.5628662109375 587.1233520507812 441.28619384765625 586.183349609375 440.73284912109375 585.530029296875 C 440.1861877441406 584.8766479492188 439.40618896484375 584.5499877929688 438.3928527832031 584.5499877929688 ZM 452.8099670410156 582.9199829101562 C 453.38330078125 582.9199829101562 453.8966064453125 582.9666748046875 454.3499450683594 583.0599975585938 L 454.0799560546875 584.8699951171875 C 453.546630859375 584.75 453.0766296386719 584.6900024414062 452.6699523925781 584.6900024414062 C 451.62994384765625 584.6900024414062 450.7432861328125 585.1133422851562 450.00994873046875 585.9600219726562 C 449.26995849609375 586.7999877929688 448.89996337890625 587.8499755859375 448.89996337890625 589.1099853515625 L 448.89996337890625 596 L 446.949951171875 596 L 446.949951171875 583.1599731445312 L 448.5599670410156 583.1599731445312 L 448.77996826171875 585.5399780273438 L 448.8699645996094 585.5399780273438 C 449.3499450683594 584.7000122070312 449.9266357421875 584.0533447265625 450.5999450683594 583.5999755859375 C 451.2666320800781 583.1466674804688 452.0032958984375 582.9199829101562 452.8099670410156 582.9199829101562 ZM 462.1719665527344 596.22998046875 C 460.27197265625 596.22998046875 458.77197265625 595.6533203125 457.6719665527344 594.5 C 456.5786437988281 593.3466796875 456.031982421875 591.739990234375 456.031982421875 589.6799926757812 C 456.031982421875 587.6133422851562 456.5419616699219 585.969970703125 457.5619812011719 584.75 C 458.58197021484375 583.530029296875 459.9486389160156 582.9199829101562 461.6619873046875 582.9199829101562 C 463.2752990722656 582.9199829101562 464.54864501953125 583.4500122070312 465.4819641113281 584.510009765625 C 466.4219665527344 585.5700073242188 466.8919677734375 586.9666748046875 466.8919677734375 588.7000122070312 L 466.8919677734375 589.9299926757812 L 458.0419616699219 589.9299926757812 C 458.08197021484375 591.4366455078125 458.4653015136719 592.5800170898438 459.1919860839844 593.3599853515625 C 459.9119873046875 594.1466674804688 460.92864990234375 594.5399780273438 462.2419738769531 594.5399780273438 C 463.6219787597656 594.5399780273438 464.9886474609375 594.25 466.34197998046875 593.6699829101562 L 466.34197998046875 595.4000244140625 C 465.6553039550781 595.7000122070312 465.00531005859375 595.913330078125 464.3919677734375 596.0399780273438 C 463.7786560058594 596.1666870117188 463.03863525390625 596.22998046875 462.1719665527344 596.22998046875 M 461.6419677734375 584.5499877929688 C 460.608642578125 584.5499877929688 459.7853088378906 584.8866577148438 459.1719665527344 585.5599975585938 C 458.55865478515625 586.2333374023438 458.1986389160156 587.163330078125 458.09197998046875 588.3499755859375 L 464.8119812011719 588.3499755859375 C 464.8119812011719 587.1233520507812 464.5353088378906 586.183349609375 463.9819641113281 585.530029296875 C 463.435302734375 584.8766479492188 462.6553039550781 584.5499877929688 461.6419677734375 584.5499877929688 Z" transform="matrix(1, 0, 0, 1, 0, 0)" style="fill: rgb(51, 51, 51); white-space: pre; color: rgb(51, 51, 51);"/></svg>